<?xml version="1.0" encoding="utf-8"?>
<!-- Generator: Adobe Illustrator 23.0.2, SVG Export Plug-In . SVG Version: 6.00 Build 0)  -->
<svg version="1.1" id="Layer_1" xmlns="http://www.w3.org/2000/svg" xmlns:xlink="http://www.w3.org/1999/xlink" x="0px" y="0px"
	 viewBox="0 0 183.1 472.2" style="enable-background:new 0 0 183.1 472.2;" xml:space="preserve">
<style type="text/css">
	.st0{fill:#A7A7A7;}
	.st1{fill:#727272;}
	.st2{fill:#939393;}
	.st3{fill:#474747;}
	.st4{fill:#FBFBFB;}
	.st5{fill:#909090;}
	.st6{fill:#3D3D3D;}
	.st7{fill:#8E8E8E;}
	.st8{fill:#464646;}
	.st9{fill:#A8A8A8;}
	.st10{fill:#666666;}
	.st11{fill:#D4D4D4;}
	.st12{fill:#E8E8E8;}
	.st13{fill:#969696;}
	.st14{fill:#9C9C9C;}
	.st15{fill:#BEBEBE;}
	.st16{fill:#A9A9A9;}
	.st17{fill:#303030;}
	.st18{fill:#959595;}
	.st19{fill:#9E9E9E;}
	.st20{fill:#B2B2B2;}
	.st21{fill:#BBBBBB;}
	.st22{fill:#B9B9B9;}
	.st23{fill:#B8B8B8;}
	.st24{fill:#E3E3E3;}
	.st25{fill:#515151;}
	.st26{fill:#D7D7D7;}
	.st27{fill:#333333;}
	.st28{fill:#737373;}
	.st29{fill:#E6E6E6;}
	.st30{fill:#999999;}
	.st31{fill:#B6B6B6;}
	.st32{fill:#EBEBEB;}
	.st33{fill:#E2E2E2;}
	.st34{fill:#E4E4E4;}
	.st35{fill:#424242;}
	.st36{fill:#555555;}
	.st37{fill:#676767;}
	.st38{fill:#707070;}
	.st39{fill:#848484;}
	.st40{fill:#575757;}
	.st41{fill:#D2D2D2;}
	.st42{fill:#4E4E4E;}
	.st43{fill:#696969;}
	.st44{fill:#595959;}
	.st45{fill:#494949;}
	.st46{fill:#888888;}
	.st47{fill:#8C8C8C;}
	.st48{fill:#2E2E2E;}
	.st49{fill:#D0D0D0;}
	.st50{fill:#191919;}
	.st51{fill:#5D5D5D;}
	.st52{fill:#414141;}
	.st53{fill:#282828;}
	.st54{fill:#151515;}
	.st55{fill:#F1F1F1;}
	.st56{fill:#B0B0B0;}
	.st57{fill:#5C5C5C;}
	.st58{fill:#B5B5B5;}
	.st59{fill:#757575;}
	.st60{fill:#B7B7B7;}
	.st61{fill:#101010;}
	.st62{fill:#121212;}
	.st63{fill:#7D7D7D;}
	.st64{fill:#CECECE;}
	.st65{fill:#4D4D4D;}
	.st66{fill:#D3D3D3;}
	.st67{fill:#BABABA;}
	.st68{fill:#404040;}
	.st69{fill:#D5D5D5;}
	.st70{fill:#E0E0E0;}
	.st71{fill:#C2C2C2;}
	.st72{fill:#BCBCBC;}
	.st73{fill:#747474;}
	.st74{fill:#989898;}
	.st75{fill:#4F4F4F;}
	.st76{fill:#DFDFDF;}
	.st77{fill:#212121;}
	.st78{fill:#545454;}
	.st79{fill:#252525;}
	.st80{fill:#5F5F5F;}
	.st81{fill:#6B6B6B;}
	.st82{fill:#1C1C1C;}
	.st83{fill:#6D6D6D;}
	.st84{fill:#262626;}
	.st85{fill:#A5A5A5;}
	.st86{fill:#C8C8C8;}
	.st87{fill:#535353;}
	.st88{fill:#ABABAB;}
	.st89{fill:#FFFFFF;}
</style>
<path class="st0" d="M61.5,376c0-46.7,0-93.3,0-140c0-5,0-10,0-15c0.3,0,0.6-0.1,0.9-0.1c2,0.6,1.8,2.4,2.3,3.9
	c0.5,2.8-1.6,5.7,0.1,8.5c0.8,1.2,0.1,2.4-0.1,3.6c1.1,6.1,1.5,12.4,2.7,18.3c0,0.9-1-0.2-0.3,0c0.2,0,0.2-0.1,0.2-0.3
	c0.1-7.2,3.1-13.4,6.3-19.6c0.7-1.3,2.2-2.5,1.6-4c-2.2-5.3,0.7-9.8,1.9-14.6c1-3.9,0.9-7.8,0.9-11.9c-0.1-12.6,0.2-25.2,3.7-37.6
	c1.2-4.2,1.1-9.2,0.1-14c-1-5.1-0.2-10.6,0.8-15.6c1.4-7.3,0.2-14.6,1.2-21.8c1.5-10.9,0-21.7,0.7-32.6c0.6-9.4,1.5-18.9,0.9-28.5
	c-0.4-6.5-0.5-13.6,1.1-20.4c0.9-3.7-0.1-7.5-0.6-11.2c-0.4-3.2,0.2-5.8,4.3-5.5c1.7,0.9,1.6,2.5,1.6,4c0.1,40.3,0.3,80.7-0.1,121
	c-0.1,14.1,1.7,28.4-0.8,42.4c-1.6,9.1,0.9,18.1,0,27.1c-0.1,6.4-0.7,12.9-0.1,19.4c0.3,3.4-0.3,6.4-1.8,9.3c-2.7,5-2.5,5.2,3.4,5.5
	c2.3,0.1,4.9-1,6.9,1.2c0.2,0.5,0.2,0.9,0.1,1.4c-1.1,2.3-3.5,0.7-5,1.6c1.5,0.2,2.9,0.8,4.4,0.8c1.2,0.1,2.2,0.6,2.4,2
	c-0.4,2-1.5,3.4-3.7,3.5c-1.7,0-3.2-0.8-4.9-0.6c-1.7-0.1-2.7,1-2.3,2.4c1,3.4-1.2,5.4-2.9,7.6c-1.1,4.6-1.9,9.3-2.2,14
	c-0.4,4.8-3.1,9.5-0.6,14.7c0.5,1-0.7,4.7-3.1,6.2c-2.8,1.7-3.3,4.4-3.4,7.3c-0.2,6.8-0.1,13.6-0.5,20.5c-0.4,5.2,1.8,10.2,4.9,14.4
	c1.7,2.3,1.7,3.7-0.1,5.6c-0.9,1-1.3,2.4-2.3,3.3c-3.2,3-3.6,5.8,0.1,8.7c1.8,1.4,2,3.4,1.4,5.6c-0.7,2.5-0.5,4.9,2.1,6.4
	c1.5,1.1,2.5,3,4.5,3.3c1.9,0.3,2.4,1.5,2.2,3.1c-0.2,1.7-1.5,2.1-2.9,2.1c-2.2,0.1-4.3,0.1-6.5,0C74.8,379.2,68.1,377.7,61.5,376z"
	/>
<path class="st1" d="M36.6,408c1-2.3,1.9-4.7,2.9-7c1.6-0.8,2.5-0.1,2.7,1.4c0.2,1.2,0.9,1.9,1.7,2.7c0.9,0.9,1.3,2,0.7,3.1
	c-3.9,7.3-6,15.5-11.4,22.1c-1.6,1-3.1,0.9-4.4-0.5c-0.9-3.1,0.1-5.8,1.9-8.2c0.7-1.5,1.8-2.8,2.4-4.3c0.9-1.7,2-3.3,2.3-5.2
	C36,410.8,36.6,409.5,36.6,408z"/>
<path class="st2" d="M29.6,419.1c1.7-2.4,4.2-4.6,3-8.1c2,0,2.9-1.6,4-3c0,1.5,0,3,0,4.5c0.9,2.5-1.4,3.9-2,5.9
	c-0.6,1.2-1.3,2.3-1.9,3.5c-1,1.3-1.7,2.8-2.4,4.3c-1.8,3.4-3.4,3.2-5-0.1"/>
<path class="st3" d="M42.6,406c-2.2-0.9-2.1-3.4-3.2-5c0.2-0.6,0.3-1.2,0.5-1.8c2,0.1,3.9-0.1,5.7-1c1.7,0.6,2.6,1.8,2.2,3.7
	C46.4,403.6,45.3,405.9,42.6,406z"/>
<path class="st4" d="M96.8,254.2c1.4-0.1,2.8,0.1,4-1c-0.9-2.3-0.7-4.6-0.5-6.9c1.2-1.8,1.6-3.5,1.3-5.8c-0.6-6.1-1.2-12.2-0.7-18.3
	c0.8-10.6,0.8-21.3-0.4-31.9c-0.4-3.5,0.4-7,0.6-10.4c0.5-8.7-1.1-17.3-0.9-25.9c0.1-5,1.1-10,0.8-14.9c-1.4-23.3-0.4-46.6-1.1-69.9
	c-0.3-11.3,0.8-22.6,0.2-33.9c-0.2-3.8,0-7.7-0.7-11.4c-0.2-0.5-0.3-1.1-0.4-1.6c0.9-2.9,0.6-6.3,3.6-8.3c1.3,1.1,2.7,2.2,4,3.3
	c3.5,2.7,6.9,5.5,8.1,10c-0.4,14,0.7,28,0.9,42c0,10.4,0.1,20.7,0.1,31.1c0.9,14.1,0.1,28.1,0.4,42.2c0,2.3-0.5,4.6,0.4,6.9
	c0,3,0,5.9,0,8.9c0,10.3,0.1,20.7,0.1,31c0,12,0,24,0,36c0,14.7,0,29.3,0,44c0,35.3-0.1,70.6-0.1,105.9c0,2.7-0.1,5.3-0.1,8
	c-0.9,2.1-2.6,1.7-4.2,1.3c-1.7-0.4-3.3-0.7-5-0.2c-0.5-0.2-0.9,0.2-1.3,0.2c-8.5,0.3-10.2-2.1-7.5-10.4c1.8-4-2.6-3.4-3.9-5.1
	c-0.5-1-0.3-2.2,0.7-2.6c2.9-1.1,3.5-3.7,4.3-6.2c-0.2-4.5,0.5-8.8,1.9-13.1c1-3.2,0.5-6.6-0.8-9.8c-0.8-1.9-0.1-3.6,0-5.4
	c0.2-5.1,1.3-10.3-1-15.3c-1-1-2.4-1.6-3.2-2.8c-0.4-1.1,0.1-2,0.7-2.7c2.6-3.1,2-6.5,1.1-9.9c-0.1-0.9-0.3-1.8-0.4-2.7
	c0.3-7.6,2.4-15.3-0.5-22.9c-0.2-0.6-0.2-1.3-0.2-1.9c0.1-0.5,0.3-0.9,0.6-1.3c1.5-1.5,3.5-2.9,0.3-4.7c-0.3-0.3-0.6-0.7-0.8-1.1
	C97.9,262.2,97.6,258.1,96.8,254.2z"/>
<path class="st5" d="M156.5,427.1c6.9,12,13.9,24,20.8,36c-4,4.7-5.2,4.8-8,0.6c0.8-4.6-1.2-7.4-6.3-8.9c-0.8-0.2-1.6-0.2-2.4-0.3
	c-2.3-0.2-5.2-0.1-5.8-2.7c-0.7-2.9,2.8-1.8,4.1-3c0.4-0.3,0.5-0.8,0.7-1.3c1.2-2.3-0.7-3.8-1.3-5.6c-2.7-5.3-6.5-10.1-8.4-15.9
	c-0.3-0.6-0.7-1.2-0.9-1.9c-1.9-3.7-3.9-7.3-8-8.9c-1.3-0.5-2.3-1.3-2.1-2.9c0.1-1.8,0.2-3.5-0.2-5.3c-0.8-3.1,0.5-4.5,3.7-4.1
	C147.2,411,151.8,419.1,156.5,427.1z"/>
<path class="st6" d="M142.5,403c-2.5,2.6-1.6,5.9-2,8.9c-0.9,2.1-2.8,1.2-4.2,1.4c-2.8-1.1-5.6,2.8-8.5,0.1
	c-1.6-2.8-0.2-4.6,2.1-5.9c1.5-0.8,2.3-1.8,1.7-3.5c-1-4.5,3.6-2.5,5-4.2C140.8,396.5,140.4,402.2,142.5,403z"/>
<path class="st7" d="M106.5,381.9c3.3,0.3,6.6,0.6,9.9,0.9c0.4,0.1,0.7,0.2,1.1,0.2c0.4,0.7,0.3,1.3-0.2,1.8
	c-3.4,2.3-7.4,2.3-11.2,2.6c-2.5,0.2-5.1-0.1-7.6,0.4c-3.1,0.6-6.7,0.9-7.4-2.7c-0.8-4.2,3.4-3.4,5.9-4.2
	C100.2,382.1,103.4,380.9,106.5,381.9z"/>
<path class="st8" d="M127.6,385.7c1.6,0.9,7.2-1.3,3.2,4c-0.2,0.2-0.2,0.8-0.1,0.9c3.8,2.4,0.6,5.6,1,8.4c-1.4,1.2-2.8,0.4-4.2,0.1
	c-0.9-0.6-1.4-1.4-1.4-2.5c0.3-2.3-1.2-4.5-0.3-6.7C126.6,388.6,124.4,386,127.6,385.7z"/>
<path class="st9" d="M127.6,385.7c-1.1,1.5,0.5,2.9,0.2,4.4c-0.2,2.6-2.1,2.6-3.5,1.6c-2.6-1.8-4.6-4.5-7.3-6.2
	c-0.3-0.2,0.1-0.9,0.5-1.3c0-0.4,0.1-0.8,0.1-1.2C121.4,381.9,124.2,384.8,127.6,385.7z"/>
<path class="st10" d="M128.4,398.2c1.3-0.5,2.3,0.1,3.3,0.8c1.6,0.3,3.3,0.6,4.9,0.9c-0.7,1.6-3.2,1.9-3.1,4.2
	c-0.6,1.3-1.3,2.5-3,2.4c-3.2-1-4.7-2.9-3.5-6.3C127.2,399.3,127.7,398.7,128.4,398.2z"/>
<path class="st5" d="M63.5,69c-0.3-2.7-0.6-5.3-0.9-8c2.1-8.9,0.5-18,0.9-27c-1.3-7,1.6-12.1,6.9-16.4c3.7-3,7.3-6.2,10.9-9.3
	c0.7-0.6,1.8-1.2,2.7-0.5c1.1,0.9,0,1.8-0.4,2.6c-2.6,5.5-2.6,5.5,3.9,5.4c0.5-0.3,0.9-0.2,1.3,0.3c-0.1,3.7-3.5,3.1-5.5,4.4
	c-1.7,1-1.3,2.7-1.7,4.3c-3.3,16.1-2.8,32.6-4.5,48.9c-1.9,18.1-3.6,36.3-2.9,54.7c0.2,5.9-0.6,11.9-1.1,17.9
	c-0.1,1-0.4,1.9-0.7,2.9c-0.7,2.3-2,3.9-4.6,3.6c-2.6-0.3-3.5-2.5-3.5-4.6c0.4-14.9-2.2-29.7-0.5-44.6c0.3-2.5,0-5-0.9-7.4
	C63.3,87.3,62.5,78.1,63.5,69z"/>
<path class="st11" d="M88.4,16.1c-0.3-0.1-0.5-0.2-0.8-0.2c-1-0.8-2.3-1.5-1.5-3.1C87.7,10,88,7.1,88.5,4c0.4,0.7,0.7,1.4,1.1,2.1
	c4.5,2.3,7.9,5.7,10.3,10.2c0.9,1.7,0.1,3.2,0.6,4.8c0,0.3,0,0.7,0,1c-1.2,5.2-1.7,10.5-0.7,15.8c0.8,4.7-0.5,9.3-0.8,13.9
	c-0.5,8.7,1.2,17.2,1.1,25.9c-0.2,18,0.6,35.9-0.3,53.9c-0.6,14.1,0.8,28.2-0.5,42.3c-0.9,9,0.5,18.2,0.8,27.4
	c0.3,9.8-1.4,19.6-0.6,29.4c0.1,1.7-0.1,3.4,0.4,5c1.1,3.9-0.3,5.7-4.2,5.9c-4-0.5-4.7-3.2-4.8-6.7c-0.4-14.3,0.1-28.6,0.3-42.8
	c0.3-26.6,0.4-53.2,0.4-79.8c0-20.6-0.1-41.2-0.2-61.7C91.3,39.8,91,29.4,91.5,19C90.9,17.6,89.1,17.5,88.4,16.1z"/>
<path class="st12" d="M100.5,21c-3.7-2.1-6.9-4.5-6.7-9.4c-4,0.1-3.2-3.5-4.2-5.6c5.8,0.1,9.5,3.7,13,7.6
	C103.3,16.5,101.8,18.7,100.5,21z"/>
<path class="st13" d="M63.6,97c2.3,2.1,2.1,4.8,1.7,7.4c-1.2,10.1-1,20.1,0.9,30.2c0.7,3.7,0.3,7.6,0.5,11.5
	c0.1,1.4-0.1,3.5,1.8,3.7c2.3,0.2,2.4-2.1,2.4-3.6c0.3-9.1-0.1-18.2,0.8-27.3c1.1-10.9,0.2-21.9,2.8-32.7c1.6-6.9-0.2-14.2,1-21.3
	c1.8-9.8,1.4-19.8,2-29.8c0.3-4.9,2.3-9.3,3.1-14.1c0.3-1.6,1.4-2.6,3-3c0.5,0.3,1,0.8,1.3,1.4c1.5,4.4,1.5,8.8,0.1,13.2
	c-0.7,1.9-1,4-0.7,5.9c1.3,8.8-0.6,17.6-0.1,26.3c0.2,4.1,0.5,8.3-2.5,11.9c-1.5,1.7-0.5,4-0.6,6.1c-0.6,8.1-1.2,16.2,0.4,24.3
	c0.3,1.4,0.1,3-0.8,4.5c-0.6,1-1.2,2.5-0.7,3.7c3.1,8.6,0,16.8-1.3,25.2c-1.2,7.6-2.8,15.2-2.3,23c0.4,5.7-0.6,11.5-2.3,17.1
	c-1,3.3-3.1,5.4-6.4,5.3c-3.6-0.1-3.4-3.5-4.2-6c-0.6-1.9,0.1-4-0.8-5.9c0-6.7-0.1-13.3-0.1-20c0-9,0-18,0-27c0-4.3,0-8.7,0-13
	c0-1,0-2,0-3C63.9,106.4,62.1,101.6,63.6,97z"/>
<path class="st14" d="M62.6,174c0.5,1.7,1,3.5,1.6,5.2c0.7,1.9,1.3,4,3.8,3.9c2.2-0.1,3.6-1.7,4.3-3.7c1.8-4.8,2-10,1.3-14.8
	c-1.2-8.4,1.3-16.2,2.8-24.1c1.5-8.3,2.1-16.4,2.1-24.9c0-12-3.4-24.6,0.7-35.9c3.9-10.7,3.7-21.2,3.3-31.8
	c-0.3-9.8,2.7-19.4,1.1-29.1c5,1.1,4,5.8,3.7,8.3c-1.1,8.5-0.3,17-1.3,25.4c-0.6,5.3,0.3,10.9-0.1,16.4c-0.5,6.6-1.2,13.1-1.3,19.8
	c-0.1,5.6,0.7,11.3,0.2,16.9c-1,10.7,0.3,21.5-1.8,32.3c-1.1,5.8-1.8,12.1-0.5,18.3c0.8,3.9,0.5,8.3-1,12.4c-1.8,4.7-2.8,9.8-2.1,15
	c0.5,3.9-1.2,7.5-1.4,11.3c-0.4,7.5-0.9,14.9-1.1,22.4c-0.2,7.8-7.7,11.6-14.3,7.6c0-1.4,0-2.7-0.1-4.1
	C62.5,205.3,62.6,189.7,62.6,174z"/>
<path class="st15" d="M116.5,149.1c-1.4-4.5-0.8-9.2-0.8-13.8c-0.1-11.8,0-23.5,0-35.3c0.9,1.9,0.9,3.9,0.9,5.8
	C116.5,120.3,116.5,134.7,116.5,149.1z"/>
<path class="st16" d="M63.6,97c-0.4,4.7,0.8,9.4-1,14c0-5.3,0-10.7,0-16c0-6,0-12,0-18c0.1-2.7-0.3-5.4,1-8
	C63.5,78.3,63.6,87.7,63.6,97z"/>
<path class="st17" d="M117.4,384.3c4.2,0.7,6.1,5.2,10.4,5.8c0.9,2,0.9,3.9-0.1,5.9c-2.4,2.6-4.9,1.7-6.8-0.5
	c-1.6-1.9-3.4-3.1-5.7-3.6c-3.7-1.8-7.7-0.2-11.3-0.7c-6.8-0.9-13.6-0.4-20.4-0.7c-3.5-0.2-7,0.2-10,2.4c-0.8,0.1-1.7,0.1-2.4-0.4
	c-1.9-1-1.4-2.9-1.6-4.3c-0.1,1.7,0.1,3.6,1.9,4.8c0.7,3.6-0.3,7.9,4.7,9.7c1.6,0.6,1.4,2.8-0.1,4.1c-1,0.8-2.2,1.3-3.2,2.3
	c-0.5,0.4-1,0.9-1.7,1.2c-1.8,0.1-2.8,2.1-4.7,2.2c-4.4-1.9-8.3-4.8-12.5-7.2c-1,0-1-4.2-2.9-0.7c-1.1,4.4,0,8.6,2.2,12.4
	c0.9,1.6,1.3,3.3,1.9,5c0.4,0.8,1,1.4,1.7,1.9c0.9,0.7,2,1.1,2.6,2.2c0.5,0.6,1,1.1,1.1,1.9c0.2,1.9,1.6,2.4,3.1,3.1
	c2.7,1.2,3.8,3.1,0.9,5.4c-2.5-0.3-4.7-0.3-5.8,2.7c-0.5,1.3-1.6,2.2-3.2,1.6c-4.1-1.5-8.5-1.5-12.7-2.7c-1.4-0.4-3.3-0.5-3.2-2.7
	c0.1-1.9,1.6-2.3,3.2-2.5c1.8-0.3,3.6-0.1,5.8-0.2c-1.8-1.8-3.9-2.5-5.9-3.5c-2.1-1-3-2.7-2.5-5.2c0.5-2.6,2.1-2.9,4.3-2.5
	c2.8,0.1,2.6-1.5,1.9-3.4c-2.2-2.6-0.8-6-2-8.8c1-2.2,0.2-5,2.2-6.9c-0.3-1.4-0.5-2.7-0.8-4.1c0.8-0.4,2.4-0.7,1.4-1.9
	c-2.1-2.6,0.1-3.8,1.4-5.3c2.3-1.4,2.9-3.9,4-6c2.2-2.7,5.9-0.6,8.2-2.6c4.3-3.9,9.5-3.3,14.7-2.7c6.9,3.2,14.2,0.3,21.2,1.3
	c0.5,0.3,0.8,0.7,0.9,1.3c-0.8,0.3-1.5,0.6-2.3,0.8c-1.1,0.3-2.5,0.6-2,2.2c0.4,1.3,1.7,1.7,2.8,1.5c4.5-0.8,9.2,0.1,13.7-1.5
	C112.1,384.2,114.7,383.8,117.4,384.3z"/>
<path class="st18" d="M75.3,381.1c-4.9,0.4-9.7,0.8-14.6,1.2c0.3-2.1,0.6-4.2,0.8-6.3c3.6-3,7-3.3,10.5,0.2c2.3,2.4,6.1,1.4,8.5,3.7
	c-0.4,1.1-1.5,1.2-2.4,1.5C77.2,381.5,76.2,381.6,75.3,381.1z"/>
<path class="st3" d="M52.5,384.9c0.2,0.2,0.4,0.5,0.7,0.7c1.9,1.8,3.4,4.5,1.8,6.5c-1.8,2.2-4.5,0.5-6.5-1.1
	C44.7,385.6,50,386.1,52.5,384.9z"/>
<path class="st19" d="M62.6,225c11.1-2.5,11.1-2.5,11.7-14.2c0.4-7.7,1.3-15.4,2.2-23.1c0.6-5-0.4-10.6,1.4-15.5
	c1.6-4.5,2.1-8.9,2.9-13.5c0.6-3.4-1.3-6.2-1.1-9.7c0.7-9.5,3.9-18.7,3.4-28.2c-0.6-9.9-0.6-19.9-0.4-29.8c0.4-14.6,2-29.1,2.3-43.7
	c0.2-7.1,0.3-14.2,1-21.3c0.2-2.5-0.7-4.9-2.4-6.9c0-0.3,0-0.7,0-1c1.5-0.8,3.6-0.3,4.9-1.9c1,0.3,2.1,0.6,3.1,0.8
	c0.5,1.1,0,1.7-1.1,2c-2.3,0.9-2.9,2.6-2.4,4.9c1.6,7.6-0.3,15.2-0.2,22.8c0.1,16.9-1.3,33.8-1.4,50.8c-0.1,17.4-0.8,34.9-2.4,52.3
	c-0.3,3.3,0.5,6.6,0.5,9.9c-0.2,9.7-2.7,19-3.5,28.6c-0.5,5.5-0.9,11,0,16.4c0.7,4.4,0.3,8.6-1,12.8c-1.3,4.2-4,8.1-1.2,12.7
	c0.4,0.7-0.2,2.4-0.8,3.2c-3.5,4.5-4.6,9.9-6.7,15c-1.3,3.2-2,6.3-1.2,9.7c0.2,1,0.3,2,0.2,3c-0.2,1.6-0.4,3.7-2.5,3.6
	c-1.9-0.1-1.8-2.1-2-3.5c-1-8.1-2.1-16.1-3.1-24.2c1-1.5,2.9-1.5,4.2-2.7c-1.6,1.3-3,1.3-4.2-0.3C62.6,231,62.6,228,62.6,225z"/>
<path class="st20" d="M81.6,375c-0.3-0.4-0.7-0.7-0.9-1.2c-2.3-5.5-1.5-12.2-7-16.6c-1.4-1.1-0.2-3.3,1.6-4.6c1.8-1.2,3.4-2.6,5-4
	c1.4-1.3,1.6-2.6,0.3-4.3c-4.7-6.2-6.7-13-5.3-21c0.9-5.2,0.1-10.6,0.4-15.9c0.1-3.6,0.2-7.4,4.5-9.1c0.7-0.3,1.7-2,1.5-2.3
	c-3.7-5.6,0.5-10.6,1.2-15.7c0.7-5.4-0.4-11,1.7-16.3c0.4,0.1,0.8,0.3,1.2,0.7c0.6,1.3,0.9,2.6,0.9,4c0,2,0.9,3.1,3.1,2.9
	c4.1,0.9,5.5,3.7,5.4,7.6c-0.1,3.1,0.2,6.2,0.5,9.3c-3.5,2.1,0.5,6.2-2.3,8.5c0.5,0,0.9-0.3,1.4-0.2c1.4,0.3,2,1.1,1.7,2.5
	c-3.4,3-4.3,7.5-2.4,11.7c0.4,0.9,1,1.7,0.4,2.7c-1.2,1.2-2.8,0.6-4.2,1c-1.6,0.4-4.2-0.8-4.2,2.5c0,2.6-1.6,5.5,2.2,6.9
	c2.6,4.3,1,9.3,2.2,13.8c-1.1,1.1-2.9,0.6-4,1.8c-0.6,0.7-0.8,1.5-0.8,2.4c0.2,1.8-0.5,3.8,0.6,5.5c0.3,0.4,0.5,0.8,0.6,1.2
	c1.5,4,4.3,8-0.1,12c-0.7,0.6-0.6,2.5-0.2,3.3c2.8,5.3-0.7,7.7-4.2,10.3C82,374.5,81.8,374.7,81.6,375z"/>
<path class="st21" d="M90.5,19c0.4-0.7,0.7-1.3,1.1-2c3.3,3.3,1.4,7.3,1.3,10.9c-0.3,13.3-0.5,26.6,0,39.9c0.1,3.3-0.5,6.7-0.3,10
	c0.9,22-0.1,43.9-0.1,65.9c0.1,22.3,0,44.6,0,66.9c0,7.5-0.8,14.9,0,22.4c0.3,2.7,0.1,5.4,2.9,7c-0.9,2.2-3.2,1.8-4.9,2.5
	c-1.2,0.1-2.2-0.1-2.8-1.3c3.4-9.2,0.5-18.8,1.8-28.1c0.7-1.9,1-3.9,1-5.8c-0.3-10.7,0.4-21.3,0.4-32c0.1-24.7,0.3-49.4,0.2-74.2
	C91,86.1,91.2,71.2,91,56.2c-0.1-11.7,0.6-23.5-0.5-35.2C90.5,20.3,90.5,19.6,90.5,19z"/>
<path class="st22" d="M90.5,21c1.1,2.7,1,5.5,1,8.4c0,58.2,0,116.4,0,174.5c0,3.2-0.1,6.3-2,9.1c0.1-12.4,0.5-24.9,0.5-37.2
	c0-26.7,1.2-53.5,0.2-80.2c-0.4-11.2,0.7-22.6,0.1-33.9c-0.7-11.9,1.3-23.9-0.6-35.8C89.6,24.3,90.3,22.6,90.5,21z"/>
<path class="st23" d="M81.6,375c0.5-1.2,0.6-2.8,1.4-3.6c2.7-2.5,3-4.8,0.3-7.5c-1.5-1.6-0.4-3.1,0.9-4.3c3.7-3.5,2.4-6.6-0.6-9.6
	c1.3-1.6,3.1-1.6,4.9-1.4c5.3,2.1,6.8,7.3,4.1,13.9c-0.6,0.7-1.4,1.5-0.2,2.4c0.3,0.3,0.5,0.7,0.6,1.1c0.1,0.4,0,0.9-0.1,1.3
	c-0.3,1.3-3.2,1.9-1,3.9c1,1.5,3.1,1.9,3.7,3.8c1.1,3.7-0.5,5.5-6,6.5c-3.5-0.6-7.3,1.4-10.7-0.7c0.6-0.3,1.2-0.5,1.7-0.8
	c2.4,0,4.8,0,7.3,0C85.6,378,84.4,375.4,81.6,375z"/>
<path class="st24" d="M96.8,254.2c5.6,0.6,7,4.6,1.8,11.7c-1.5,2.5-3.4,0.5-5.1,0.5c-3.6-3.5-4.1-7.4-1.7-12.2
	C93.5,254.1,95.1,254.2,96.8,254.2z"/>
<path class="st14" d="M62.6,234c1.6-0.7,2.3-2.3,3.3-3.6c1.6-2.2,3.7-2.2,5.6-0.7c2.2,1.7,1.1,3.3-0.2,5.1c-2.3,3.3-5.3,3.5-8.7,2.2
	C62.6,236,62.6,235,62.6,234z"/>
<path class="st25" d="M87.7,241.1c1-0.1,1.9-0.2,2.9-0.2c2.7-1.2,5.6,0,8.4-0.2c2.6-0.2,3.2,1.8,1.9,4.1c-1.2,1-2.4,0.7-3.5-0.1
	c0.9,0.8,2.5,0.7,2.7,2.3c-0.2,0.9-0.6,1.3-1.6,1c-2.6,0-5.3,0.1-7.9,0.1c-1.8,0-3.8,0.2-4.7-1.9C85.1,244.2,85.8,242.4,87.7,241.1z
	"/>
<path class="st23" d="M91.8,254.1c0.6,3.6,1.2,7.1,1.8,10.7c-2.8,2.6-5.8,2.3-8.9,0.5c-0.1-0.5-0.1-0.9-0.2-1.4
	c3.1-1,3.6-3.4,3.3-6.2C87.6,254.8,88.8,253.5,91.8,254.1z"/>
<path class="st26" d="M89.4,251.2c2.5-3.2,6.1-1.8,9.3-2.4c2.2,1.8,2,2.5-1.2,3.7C94.9,251.8,91.7,254,89.4,251.2z"/>
<path class="st27" d="M89.4,251.2c2.6,1.5,5.4,0.6,8.1,0.9c0.7,0.3,0.7,0.6,0,0.9c-3.6-0.2-7.4,0.7-11.1-0.2
	C87.1,250.6,88.5,251.4,89.4,251.2z"/>
<path class="st28" d="M97.5,253c0-0.3,0-0.6,0-0.9c1.3-0.8,2.2-1.7,1.2-3.3c-0.1-0.2-0.1-0.5-0.2-0.7c0.3-0.3,0.7-0.7,1-1
	c0.7-0.6,1.3-0.8,1.9,0.1c0.3,2,0.9,4.1-0.7,5.9C99.6,253.1,98.6,253,97.5,253z"/>
<path class="st29" d="M25.5,446c0-0.6,0.1-1.3,0.1-1.9c1.2-5.5,2.8-10.9,7-15.1c3.3-6.5,6.5-13.1,9.7-19.6c0.5-1.1,0.7-2.2,0.3-3.4
	c1.3-1.2,0.8-4.3,3.8-3.8c1.3,2.5,0.1,4.5-1,6.7c-0.3,1.3,0.1,2.7-0.5,3.9c-0.7,1-0.2,2.4-0.9,3.4c-4,5.8-4.6,13-8.5,18.8
	c-2.6,3.6-3.4,8.4-6.6,11.6c-0.7,0.7-1.3,1.3-2.4,1.2c-0.3,0.7-0.7,1.3-1,2c-0.3-0.3-0.7-0.7-1-1C24.9,448,25.2,447,25.5,446z"/>
<path class="st30" d="M24.5,437c3.9-1.3,4.5-4.7,5.1-8c1,0,2,0,3,0c-1.7,5.3-4,10.4-7,15.1C25.2,441.7,24.9,439.4,24.5,437z"/>
<path class="st31" d="M34.6,418.3c0.7-2,1.3-3.9,2-5.9c0.9-1.1,1.9-2.2,2.9-3.2C38.6,412.8,36.8,415.7,34.6,418.3z"/>
<path class="st12" d="M101.4,247.2c-0.6,0-1.2-0.1-1.9-0.1c-1.7-0.4-3.3-0.8-5-1.2c-1.1-0.8-2-1.7,0-2.3c1.4-0.4,3-0.4,4.4,0.2
	c1.4-1,0.8-1.7-0.4-1.9c-2.6-0.5-5.2-0.7-7.8-1.1c1.6-0.3,3.2-0.7,4.8-1c1.2-0.3,2.3-1,2-2.4c-2.8-12.6,1-25.1-0.2-37.7
	c-1.7-17.9-0.5-35.9-0.3-53.7c0.3-22.3,0.7-44.6,0.3-66.9c-0.3-15.6,0-31.2-0.7-46.8c-0.2-3.9-0.7-8.2,3.9-10.5c2.2,2.3,2,5.2,2,8
	c0,24.6,0.2,49.2-0.1,73.8c-0.2,12.7,2.1,25.3,0.9,37.9c-1.5,15.6-0.2,31.2,0,46.7c0.2,16.8-0.6,33.5,0.2,50.3
	C103.7,241.7,103.3,244.7,101.4,247.2z"/>
<path class="st32" d="M100.4,314.8c4,5.4,2.9,11.6,2.6,17.6c-0.1,2.4-0.5,4.5,0.6,6.8c1.1,2.3,1.7,5.1,0.7,7.3
	c-2.3,4.8-0.7,9.6-0.6,14.4c-2.7,2.1-5.2,4.6-9,4.5c-2.2-1.5-1.5-3.8-1.4-5.8c0.2-3.3-0.2-6.6,0.3-9.9c0.8-1.2,2-0.7,3-0.6
	c-2.2-0.8-4.7,0.2-6.8-1.3c-1.2-1.6,0.5-2.8,0.5-4.2c-0.3-1-1.4-1.3-1.8-2.2c-0.5-4.1,4.2-2,5.2-4.3c0.1-0.4,0.2-0.8,0.3-1.2
	c0.7-2.5,1-5.1-0.1-7.4c-1-2,0-3.4,1-4.9c0.2-0.4,0.3-0.8,0.5-1.2c1.9-2.2-0.2-6.7,4.3-7.4C99.9,314.8,100.1,314.8,100.4,314.8z"/>
<path class="st33" d="M93.4,289.2c-2.3-3.3-0.4-7-0.9-10.5c-0.3-2.3,0-5-3.8-3.7c-1.2-1.4-0.5-2.9,0.8-3c3.1-0.4,6.4-1.6,9.1,1.2
	c1.9,0.7,2.9,1.8,2.9,4c0,7.1-0.1,14.2-2,21.1C95.7,297.4,93.2,293.5,93.4,289.2z"/>
<path class="st8" d="M97.6,323c0.8,0.5,2.5,0.6,1,2.2c-2,0.5-4.2,0.4-6.1,1.4c-1.9,0.7-3.6,0.5-4.9-1.4c-5.6-1.1-3.5-5.4-3.5-8.6
	c0-3.7,2.9-3.8,5.6-3.7c1.3,0,2.6,0,3.9,0c0.7-1.1,1.7-1.3,2.9-1c0.5,0.3,0.9,0.6,1.2,1.1c0.9,0.6,1.8,1.3,2.8,1.9
	c0,0,0.1-0.2,0.1-0.2c-1.8,1.6-3.9,2.3-6.3,2.4c-1,0.7-3,0.4-3,2c0.1,1.7,1.9,2,3.3,2.3C95.8,321.3,96.7,322.1,97.6,323z"/>
<path class="st34" d="M90.7,380.8c4.8-3,1.5-5.9-0.1-8.8c-1.2-2.7,1.4-2.8,2.6-4c0.5-0.1,1,0,1.5,0.2c2,2,5.3,2.6,5.9,6
	c-0.6,2.2,3.7,4.1-0.2,6.3c2.5,0.6,4.3,1,6.2,1.4c-3,0.1-6,0.1-9,0.2c-0.3-0.1-0.6-0.1-0.9-0.1C94.8,380.7,92.4,382.4,90.7,380.8z"
	/>
<path class="st35" d="M98.6,273.1c-3.3,0.6-7.1-1.8-9.8,1.8c-0.5,1.1-1.1,2.2-2.5,1.8c-1.2-0.3-1.3-1.4-1.3-2.4
	c-0.1-3-0.1-5.9-0.2-8.9c3-0.2,5.9-0.4,8.9-0.5c1.7,0.3,3.3,0.7,5,1c0.3,0.1,0.6,0.2,0.9,0.3c0.5,0.7,0.3,1.3-0.2,1.9
	c-0.8,0.5-1.7,0.6-2.6,0.8c0.7,0.5,1.6,0.6,2.3,0.9c1.4,0.9,1.5,1.9,0.4,3.2C99.2,272.9,98.9,273,98.6,273.1z"/>
<path class="st29" d="M97.6,312.9c-0.4,0-0.7,0-1.1,0c-4.2-3.1-4.7-8.7-1-13.3c1.8-1.7,3.3,1,5,0.4
	C103.6,306.1,103.1,308.4,97.6,312.9z"/>
<path class="st36" d="M100.5,300c-1.3,1.5-2.6,0.9-4,0c-0.4-0.3-1-0.4-0.8-1.1c-3-1.8-6.6,0.2-9.6-1.2c-0.2-0.9,0.3-1.4,1-1.5
	c3.2-0.3,7.6,0.7,4.1-5.2c-0.6-1,1-1.9,2.3-1.9c1.9,3.1,3.5,6.4,6,9.1C99.8,298.8,100.1,299.4,100.5,300z"/>
<path class="st37" d="M94.5,369.1c-0.3,0-0.6-0.1-1-0.1c-1.4,0-2-0.8-2.1-2.1c0.1-0.3,0.1-0.6,0-1c0.5-1.6,1.6-1.7,2.9-1.2
	c3.1-1.3,6.1-2.6,9.2-3.9c-1.1,4.1-5.9,4-7.9,7.1C95.7,368.7,95.2,369,94.5,369.1z"/>
<path class="st38" d="M94.5,369.1c0.4-0.4,0.8-0.8,1.2-1.2c3.1-0.1,4.6,2.4,6.3,4.3c1.5,1.7-0.4,1.6-1.4,2
	C98,373.1,95.6,372,94.5,369.1z"/>
<path class="st39" d="M99.5,272.9c-0.7-0.7-1.3-1.4-2-2c-1.1-1.6-0.2-2.6,1-3.6c0.3-0.3,0.7-0.7,1-1
	C103.1,268.4,102.1,270.6,99.5,272.9z"/>
<path class="st40" d="M178.6,465c1.4,2.1-3.9,3.7-0.3,5.9c-1.1,1.7-2.7,1.5-4.4,1.1c-0.5-0.1-1.1-0.3-1.5-0.5
	c-5.5-4.1-12.6-4.5-18.3-8.2c-0.7-0.6-1-1.3-0.9-2.3c0-1.6,1-2.5,2.2-3.1c2.7-0.9,6.1,1,8.4-1.8c3.9,0.4,6,2.9,7.7,6.1
	c1.2,4.9,4.1-0.2,5.9,1C177.8,463.7,178.2,464.4,178.6,465z"/>
<path class="st41" d="M171.5,462.2c-2.6-1.4-5.3-2.8-7.9-4.2c-1.3-0.6-2.8-0.1-4.1-0.4c-0.7,0.3-1.3,0.7-2.1,0.9
	c-0.5,0-1,0.1-1.4,0.1c-2.3,0.8-4.3-0.3-6.4-0.8c-6.1-2.8-12.4-5-18.6-7.4c-2.1-0.8-4.6-1.3-5.7-3.8c-0.1-0.6-0.1-1.1-0.1-1.7
	c1-2.1-0.7-5.5,2.4-6.5c3.3-1.1,5.4,1.6,7.6,3.4c2.8,2.2,5.4,4.8,9.1,5.7c1.2,0,2.2,0.7,3.3,0.9c1.1-0.2,1.9-0.9,2.9-1.3
	c4.8-0.5,9.7-1.7,14,1.8c1.2,0.7,1.3,1.6-0.2,1.9c-2.1,0.4-4.2,0.4-6.6,1C163.5,453.7,172.3,451.9,171.5,462.2z"/>
<path class="st42" d="M151.6,424.9c3,5.4,6,10.7,9,16.1c-1.2,2.3-2.9,3.2-5.6,2.8c-3.2-0.5-6.5-0.4-9.7-1.3
	c-3.8-0.2-4.8-3.4-5.7-6.1c-0.8-2.4-2-4.5-3-6.8c-0.2-0.5-0.4-1-0.5-1.5c-0.1-0.5-0.2-1.1-0.3-1.6c-0.7-3.2,0.3-4.9,3.8-4.7
	c0.5,0.1,1,0.4,1.4,0.8c2.3,3.8,6,2.6,9.3,2.7C150.7,425.1,151.1,425,151.6,424.9z"/>
<path class="st43" d="M138.5,424.1c-2.1,0.2-0.7,1.8-1,2.7c-1.7,2-3.3,1.7-5-0.1c-1.6-1.6-1.7-3.7-0.2-4.8c3-2.2,1.8-4.1,0.3-6.2
	c-0.3-2.8,1.5-3.9,3.8-4.6c1.8-1.7,2.7,0.7,4,0.9c6.8,1.1,8.5,6.5,10.3,11.9C146.7,426.7,142.6,426,138.5,424.1z"/>
<path class="st44" d="M144.5,441c5.4,0,10.7,0,16.1,0c1.6,2.5,3.4,4.9,3.9,7.9c-4.6,0.6-9.5-1-14,1.2c-0.9,2-2.8-0.3-3.9,0.8
	c-0.7-0.6-1.4-1.2-2-1.7c-0.5-1.1-2-1.3-2.4-2.6c-0.1-0.5,0-0.9,0.1-1.4C142.6,443.6,142.9,442,144.5,441z"/>
<path class="st45" d="M138.5,424.1c4.1-0.1,8.1-0.2,12.2-0.3c0.3,0.4,0.6,0.7,0.9,1.1c0,0.3,0,0.7,0,1c-4.4-0.2-8.9,2.2-13-0.9
	C138.6,424.7,138.6,424.4,138.5,424.1z"/>
<path class="st46" d="M130.5,405c1-0.3,1.9-0.6,2.9-0.9c1.8,2.5,1.4,4.2-1.9,4.8c-2.5,0.4-3.1,2-3.1,4.2c0,0.2-0.1,0.4-0.1,0.6
	c-0.2,0.4-0.4,0.8-0.7,1.1c-1,0.9-1.3,2.4-2.9,2.6c-2.8-0.4-5.3,0.3-7.3,2.3c-4.2,0.4-6.4,3.6-8.7,6.5c-2.2,1.1-3.8,2.7-4.9,4.9
	c-0.5,0.2-1,0.4-1.5,0.5c-3-1-6-2-6.4-5.9c-0.2-1.5,1-2.2,1.9-3.1c4.5-3.9,8.4-8.2,10.9-13.8c0.4-0.9,0.8-1.7,1.7-2.2
	c1.9-1.2,4.1-1.6,5.3,0.3c1.5,2.5-0.4,4.9-1.2,7.4C117.4,407.3,121.4,404.9,130.5,405z"/>
<path class="st46" d="M136.4,411c-0.8,1.2-2.1,2.2-1.9,3.9c0.9,1.8,1,3.6-0.8,4.8c-2.1,1.3-3.3-0.3-4.4-1.9
	c-0.4-1.6-3.3-2.8-0.8-4.9c0,0-0.1,0.1-0.1,0.1c2.2-1.8,5.6-1.2,7.5-3.7C136.1,409.3,136.4,410.4,136.4,411z"/>
<path class="st47" d="M116.6,391c1.2-1.5,2.2-2,3.4,0.2c1.6,2.8,3.6,5.5,7.6,4.8c0.3,0.7,0.5,1.5,0.8,2.2c0,0.5,0.1,1,0.1,1.5
	c-1.4,2.5-3.7,1.9-5,0.6c-2.6-2.6-5.9-4.6-7.8-7.9C115.8,391.7,116.1,391.3,116.6,391z"/>
<path class="st48" d="M116.5,392.1c4.4,1.9,6.7,7.1,11.9,7.6c0.7,1.8,1.4,3.5,2.1,5.3c-5.2,3.7-11.5,5.6-16.1,10.2
	c-0.8,0.8-1.9,1.5-3.1,0.4c-0.9-0.8-0.4-1.8-0.1-2.8c0.4-1.7,0.8-1.6,2-0.4c1,1,1.1-0.6,1.2-1.3c0.2-2.2-0.4-3.6-3-3.2
	c-3.2-4.6-3.1-5.1,1.4-7.5c0.6-0.3,0.9-0.9,1.3-1.4c1-0.9,0.8-1.8,0.3-2.9c-0.8-1.7-2.7-3.3-0.1-5
	C115.3,391.1,116,391.5,116.5,392.1z"/>
<path class="st49" d="M40.6,450.1c2.9,1.1,4.8,2.5,0.9,4.9c-2.2-0.9-4.1,0.8-6.3,0.8c-4.2-0.1-7.5-3-8.7-7.8c0.3-0.7,0.7-1.3,1-2
	C32.2,446.4,35.8,450.1,40.6,450.1z"/>
<path class="st27" d="M110.3,409.9c-1.9,2.4,0.4,6.2-2.7,8.3c-2.8,1.8-5,4.5-8.1,5.8c-2-0.3-2-2.3-2.9-3.5c0-0.1-0.1-0.3-0.2-0.4
	c-0.3-0.4-0.1-0.3-0.1,0.2c-0.1,3.7-4.1,0.9-5.1,3.1c-0.2,1.1,0.2,1.9,0.8,2.7c1.4,1.9,0,3.4-1.1,4.7c-1.4,1.6-3,1-4.3-0.2
	c-1.3-1.1-3.2-1.7-3.7-3.7c-0.3-0.8-0.8-1.4-1.2-2.1c-0.8-4-4.6-4.8-7.3-6.7c-2.2-1.6-4.7-2.8-6.7-4.6c-0.6-2.5,1.5-3.2,2.8-4.5
	c0.4-0.4,0.9-0.9,1.3-1.3c7.6,1,12.8-3.6,18.3-7.6c1.4-1.1,1.6-3.4,3.5-4c1.4-0.2,2.7,0.1,3.6,1.4c0.9,4.5,4.6,3.7,7.4,3.4
	c3.1-0.2,4.9,0.6,5.6,3.6c0.4,1.3-2,2.1-0.6,3.5C110,408.8,110.1,409.4,110.3,409.9z"/>
<path class="st50" d="M96.7,398.8c-1-0.3-2-0.6-3-0.9c-0.6,0.7-1,1.9-2.3,1.2c-3-1.4-6.2-0.3-8.8-0.7c1.9,0,4.2-0.2,6.5,0.1
	c1.8,0.2,3.9,0.5,2.6,3.3c-3.5,2.8-6.3,6.6-10.8,8.3c-3.8,1.4-6.7,1.3-9-2.2c0.9-1.7,3.1-2.6-0.3-4.9c-2.5-1.7-3.2-6.4-2-10.3
	c-0.2-0.9,0.1-1.5,1.1-1.7c0.3-0.3,0.7-0.6,1-0.9c10.7-0.6,21.4,0.5,32.2-0.4c3.3-0.3,6.7,0.8,10.1,0.2c1.4-0.2,1.5,0.9,0.8,2
	c1,1.4,2,2.8,3,4.2c1,2-0.2,2.2-1.9,2.7c-5.7,1.8-11.4,1.1-17.1,0.6C97.9,399.4,97.3,399.1,96.7,398.8z"/>
<path class="st51" d="M54.6,445.3c-0.6-0.3-1.6-0.4-1.7-0.8c-0.3-1.5,2.1-3.9-1.5-4.2c-2.9-0.2-4.9,1.2-5.8,3.9
	c-0.3,0-0.7,0.1-0.9,0.2c-4.8,2.6-4.9,2.6-6.1-2.8c-1.4-2.8-6.6-3.1-5-7.7c3-6.3,6-12.7,9-19c3.9,1,2.7,4.3,3.2,6.8
	c-0.3,0.6-0.7,0.9-1.2,1.2c-2.9,0.9-2.7,2.7-0.5,3.6c4.1,1.6,6.9,4.9,10.5,7.3c-3.6,2-7.5,1.1-11.3,1.9c3.8,0.6,7.7,1.1,11.5,1.9
	c2.1,0.5,2.6-1.1,3.6-2c1.7-1.4,3.1-3.3,5.4-0.8c2.3,1.9,2.2,4,0.8,6.4c-0.8,1.7-2.6,0.9-3.8,1.6c-0.7,0.3-1.4,0.7-2.2,1
	C57.8,446.2,56.5,446.8,54.6,445.3z"/>
<path class="st52" d="M63.6,441c0.1-2-1.8-4,0-6c0.3-3.8-5.2-3.4-5.2-7c0.8-2,2.6-1.7,3.8-1.1c3,1.5,4.7,0,6.3-2.1
	c2-2.5,4.2-4.6,7.4-5.1c2.7,1.4,5.6,2.4,7.7,4.8c0.4,0.3,0.8,0.6,1.1,0.9c0.4,1.6-0.3,3.3,1.8,4.6c2.8,1.8,2.7,5.2,2.3,8.2
	c-0.4,3-3.2,2.1-5.2,2.6C76.9,437.7,70.3,441.3,63.6,441z"/>
<path class="st53" d="M75.6,420.9c-0.6,0.6-1.3,1-1.7,1.7c-3.7,6.1-8.5,8.7-15.4,5.3c-0.3-0.1-0.6-0.3-0.9-0.4
	c-1.1-2.3-1.7-4.6-1.5-7.1c0.2-1.7,1.1-2.9,2.7-3c2-0.1,1.7,1.7,1.8,3c0.3-3.2-3.2-5.8-1.7-9.3c0.3-0.4,0.7-0.8,1.2-1
	c6.1,1.3,10.2,6,15.3,9C75.9,419.4,75.9,420.2,75.6,420.9z"/>
<path class="st54" d="M60.5,411.1l0,0.4c-1.2,4.7-2.6,9.3-5.3,13.4c-0.6-0.4-1.3-0.8-1.9-1.2c-1.5-6-4-11.8-3.4-18.1
	c0.6-0.7,1.4-1,2.3-0.9C55.1,406.7,59.7,406.5,60.5,411.1z"/>
<path class="st55" d="M60.5,411.1c-2.6-1.7-5.3-3.5-7.9-5.2c-0.8-0.9-1.2-2-0.1-2.9c0.9-0.7,1.7,0,2.3,0.8c3.9,2.5,7.8,5,11.7,7.5
	c1.2-0.1,1.7,0.7,2.2,1.6c4.2,2.7,8.3,5.3,12.5,8c1.2,0.8,2.6,1.6,2.4,3.4c-3.2,0.1-5.3-2.5-8-3.5C70.6,417.6,65.5,414.4,60.5,411.1
	z"/>
<path class="st56" d="M114.6,391.9c-6.3-0.8-12.5-0.6-18.8-0.6c-8.1-0.1-16.3,0.9-24.2-1.2c1.1-1.9,2.9-1.3,4.4-1.3
	c11.7,0,23.4,0,35.1,0c2,0,4.5-0.7,5.5,2.1c0,0.4,0,0.7,0,1.1C115.9,392,115.3,391.9,114.6,391.9z"/>
<path class="st57" d="M55.3,424.9c1.2-4.7,2.9-9.2,5.3-13.4c0.3,2.8,0.6,5.6,0.9,8.4c0.1,1.1-0.2,2.4,1.4,2.8
	c0.9,0.2,2.9-0.5,1.9,1.6c-0.7,1.4-2.3,1-3.5,0.3c-1.6-0.9-1.8-2.6-2-5.1c-2.1,3-1.5,5.6-1.7,8.1C56.8,426.6,56,425.8,55.3,424.9z"
	/>
<path class="st18" d="M50.6,406.1c0.9,5.9,1.8,11.8,2.8,17.7c-3-4.5-3.4-9.9-4.6-15c-0.4-1.7-0.2-3.3,0.9-4.7
	C50.6,404.3,51.3,404.9,50.6,406.1z"/>
<path class="st58" d="M50.6,406.1c-0.3-0.7-0.7-1.4-1-2c-0.2-1.3-2.6-3.2-0.9-3.5c1.9-0.2,3-3.1,4.9-1.5c1.5,1.2,3,2.7,1.2,4.8
	c-1.5-0.2-2,0.8-2.2,2.1C51.9,406,51.2,406,50.6,406.1z"/>
<path class="st59" d="M70.5,391c-0.4,0.6-0.7,1.2-1.1,1.7c-1.2-2.2-1.9-4.5-1-7.1c0.4-1,0.7-1.9,2-1.7c1.3,0.2,1.4,1.2,1.2,2.2
	C71.3,387.8,70.9,389.4,70.5,391z"/>
<path class="st60" d="M68.8,412.9c-0.7-0.5-1.5-1-2.2-1.6c1.3-2.1-2.5-5.1,0.1-6.2c2.4-1,1.2,3.9,3.8,4.1
	C71.4,411.1,69.1,411.6,68.8,412.9z"/>
<path class="st61" d="M64.5,389.1c0.1,1.7-1,2.4-2.4,2.7c-1.3,0.3-2.4-0.6-2.4-1.8c0-1.7,1.4-2.5,3-2.6
	C63.9,387.2,64.5,387.9,64.5,389.1z"/>
<path class="st7" d="M90.7,380.8c2,0.2,4.1,0.1,5.9,1.1c-7.1-0.2-14.3,1.2-21.3-0.9c1.2-0.1,2.3-0.2,3.5-0.3
	C82.8,380.8,86.7,380.8,90.7,380.8z"/>
<path class="st62" d="M44.5,423c0.1-0.3,0.1-0.6,0.2-0.9c1.3-1.6-1.2-5.1,2.7-5.5c0.7,0.5,0.9,1.2,1.2,2c0,1.1,0,2.2-0.1,3.4
	c-0.1,1.1,0,2.4-1.3,2.8C45.8,425,45.2,423.8,44.5,423z"/>
<path class="st63" d="M48.6,418.5c-0.4-0.5-0.7-0.9-1.1-1.4c-2.7-0.6-3.1-2.9-3.8-5c0.6-1.1,1.1-2.1,1.7-3.2
	C47.3,411.8,48.4,415,48.6,418.5z"/>
<path class="st3" d="M90.6,347c2.9,0.9,6.3-0.5,8.9,1.8c-5.2,1.7-10.4,1.5-15.6,0c0-2.5,0-5-0.1-7.5c1.8-2.4,3.8-2.3,5.9-0.5
	c1.5,0.1,3.1,0.2,4.6,0.2c1.6,2.2,0.1,3.1-1.7,3.4C90.9,344.8,89.7,344.9,90.6,347z"/>
<path class="st23" d="M87.5,325.2c1.7,0,3.4,0,5,0c3,6.2,2.8,9.8-0.5,13.1c-1.2,0-2.2-0.1-2.5-1.5c-2.6-0.7-4.5-1.4-2.8-4.9
	C87.7,330,87.3,327.4,87.5,325.2z"/>
<path class="st64" d="M95.7,298.9c0.3,0.4,0.5,0.7,0.8,1.1c-2,4.3-1.8,8.6,0,12.9c-1,0-2-0.1-3-0.1c-2.1-0.8-3.2-1.8-2.5-4.4
	c0.8-3,1.1-6.1-0.4-9.2C92.5,299.1,94.1,299,95.7,298.9z"/>
<path class="st65" d="M89.6,336.8c1,0,2,0,3,0.1c1.4-1.6,2.7-1.5,4,0.1c1.1,0.5,2.9-0.1,3,2c-4.5,1-9,0.3-13.5,0.9
	c-1.4,0.2-3.6,0-2.2-2.7C85.7,337.1,87.6,336.9,89.6,336.8z"/>
<path class="st23" d="M83.8,337.2c0.6,2.2,2.4,1.9,4,1.9c3.9,0,7.8-0.1,11.8-0.2c-3.1,1.7-6.8,0.4-9.9,1.9c-2,0.2-4,0.3-5.9,0.5
	C83.5,340,81.7,338.6,83.8,337.2z"/>
<path class="st0" d="M83.8,348.9c5.2,0.7,10.4,0.1,15.6,0c-1.4,1.3-3.2,1-4.8,1.2c-1.9,2.1-3.9,0-5.8,0.1c-1.7,0-3.5-0.1-5.2-0.1
	C83.6,349.7,83.7,349.3,83.8,348.9z"/>
<path class="st66" d="M88.8,350.1c1.9,0,3.9,0,5.8-0.1c2.2,4.9,1.1,9.8-0.2,14.6c-1,0.4-2,0.8-2.9,1.3c0,0,0.1,0.1,0.1,0.1
	c-0.7-1.3-2.8-2.2-1-4.1C91.6,357.7,92.9,353.5,88.8,350.1z"/>
<path class="st3" d="M91.4,366.9c0.7,0.7,1.4,1.4,2.1,2.1c-1,1-2,2-3,3c-0.7,0.4-1.3,1-2.1,1.3c-1.4,0.6-3.1,1.2-4-0.3
	c-0.8-1.4,1.1-2.2,2-2.9C88.1,368.9,89.8,368,91.4,366.9z"/>
<path class="st3" d="M90.6,361.9c1.1,1.2,2.4,2.3,1,4.1c-2.9,0.1-4.7-1.6-6.6-3.9C87,360.6,88.8,361.4,90.6,361.9z"/>
<path class="st11" d="M98.9,243.9c-1.5,0.5-3.8-0.6-4.4,2c-0.8,0-1.6,0.1-2.4,0c-0.9-0.1-2.3,0.2-2.4-1c-0.2-1.7,1.5-1.4,2.4-1.5
	C94.4,243.3,96.7,243.1,98.9,243.9z"/>
<path class="st67" d="M33.5,434c0.9,1.4,2,2.5,3.8,2.9c2.1,0.4,3.7,1.6,3.2,4.1c-3.1,2.9-0.4,5.8-0.1,8.8c0,0,0.2,0.3,0.2,0.3
	c-5.7,3-9.2-0.9-13-4.1C29.8,442.1,30.8,437.6,33.5,434z"/>
<path class="st68" d="M43.7,412.1c2.4,0.8,2.8,3.2,3.8,5c-0.9,1.7-1.9,3.3-2.8,5c-0.7-2.4-1.4-4.7-2.1-7.1
	C42.9,414,43.3,413.1,43.7,412.1z"/>
<path class="st69" d="M96.6,337c-1.3,0-2.7-0.1-4-0.1c-1.1-3.9-0.9-7.8,0-11.7c2,0,4,0,6,0c-1.8,0.7-2.6,1.6-2,4
	C97.2,331.6,98.7,334.4,96.6,337z"/>
<path class="st70" d="M97.6,323c-1.3-0.1-2.7-0.1-4-0.2c-5.1-1.1-5.3-2.6-1-7.8c2.6-0.2,5.2-0.3,7.9-0.5
	C99.5,317.4,98.5,320.2,97.6,323z"/>
<path class="st71" d="M90.6,347c-1.4,0.2-2.7,0-2.7-1.9c0-1.5,1.1-1.7,2.3-2c1.5-0.4,3.9,1,4.1-2.1C98.1,346.3,92.7,345.6,90.6,347z
	"/>
<path class="st72" d="M92.6,315.1c2.3,2.3-0.8,5.3,1,7.8c-2.2-0.2-5.3,1.2-5.8-2.5C87.2,316.7,88,314.1,92.6,315.1z"/>
<path class="st69" d="M98.4,267.2c0.1,1.3-0.1,2.6-1,3.6c-3,0-7.9,0.9-8-2.2c-0.1-3.1,4.8-1.2,7.5-1.6
	C97.4,266.9,97.9,267.1,98.4,267.2z"/>
<path class="st73" d="M154.6,461c-2.4-0.8-5-1.3-7.1-2.9c0-2.2,2-1.3,3-1.9c2,0.7,4,1.3,6,2c0.3,0,0.6,0.1,0.8,0.1
	c-0.2,0.2-0.4,0.4-0.6,0.6C156,459.6,155.3,460.3,154.6,461z"/>
<path class="st74" d="M156.7,458.9c-0.1-0.2-0.1-0.4-0.2-0.7c0.6-0.1,1.1-0.2,1.7-0.4c0.1-1.1,0-2.3,1.3-2.8c1.6,0.6,3,1.5,4.1,2.8
	C161.8,462,159.1,459.4,156.7,458.9z"/>
<path class="st45" d="M150.4,456.2c-1,0.6-2,1.3-3,1.9c-6.3-2.4-12.6-4.7-18.9-7.1c-5.6,1.1-13.1-1.7-15.9-6
	c-1.4-0.7-2.7-1.4-4.1-2.2c-5.6-0.1-11.2,1.1-16.8-0.3c-2.5-2-4.9-6.1-2.9-7.4c4.4-2.8,1.7-6.8,3.3-9.9c2-0.8,3.9-1.9,5.4,0.8
	c1.1,2.1,5.8-0.7,5.2,3.8c1.8,0.7,3-0.3,4-1.7c0.1-1.1,0.4-2,1.2-2.8c-0.3-6.2,5.5-5.8,8.7-8.3c2.9,1.3,3.6,4.3,3.2,6.5
	c-0.7,3.6-1.7,6.7,1.3,9.7c0.9,1,0,2.9,0.6,4.2c0.9,1.5-0.6,2.7-0.3,4.1c1,2.3,4.3,2,5,4.6C134.1,450.3,142.4,452.9,150.4,456.2z"/>
<path class="st75" d="M116.1,441.2c2.3-0.5,3.3-2,3.4-4.3c1.4-2.9,3.9-5.1,5.3-8.1c1.1-2.2,4.3-4,7.1-2.7c1.8,0.8,3.8,0.7,5.5,1.7
	l0.2,0.3c0.2,0.4,0.4,0.8,0.4,1.3c0.3,5.3,2.3,9.9,4.9,14.4c0.4,0.8,0.8,1.4,0.6,2.3c0.8,0.9,1.3,1.9,1,3.1c-6.3-1-9.9-7-16.1-8.6
	c-1.6,1.1-0.4,3.5-1.9,4.7C123.2,443.5,119.3,443.5,116.1,441.2z"/>
<path class="st64" d="M116.1,441.2c1.3,0.2,2.5,0.7,3.8,0.6c3-0.3,5.2,0.7,6.7,3.4c0,0.4-0.1,0.7-0.1,1.1c-3.5-1.3-7-2.7-10.6-4
	c-0.1-0.1-0.3-0.2-0.4-0.3C115,441.2,115.9,441.5,116.1,441.2z"/>
<path class="st65" d="M146.6,450.9c0.7-3,2.6-0.8,3.9-0.8c1.2,0.7,3.3,1,2.3,2.9c-0.9,1.8-2.2,0-3.3-0.4
	C148.5,452.1,147.6,451.4,146.6,450.9z"/>
<path class="st65" d="M159.5,455.1c0.1,1.2,0.1,2.3-1.3,2.8c-0.1-0.1-0.3-0.2-0.4-0.3c-1.1-1.2-4.4-1.5-3.3-3.5
	C156,451.6,157.7,454.8,159.5,455.1z"/>
<path class="st27" d="M137.4,427.8c-1.6,0.1-3.3,0.1-4.9,0.3c-2.5,0.2-4.6-0.1-5.5,3.6c-0.6,2.5-3.3,5.7-7.4,5.2
	c-3.6-3.6-4.3-7.6-2.3-12.4c0.9-2.3-2.4-4.7-0.7-7.4c2.6-1,4.9-3.6,7.9-1.1c3.5,4,0.8,7.5-0.9,11.1c-2,0.7-1.5-1-1.8-1.9
	c0.3,0.9-0.3,2.6,1.7,2c2.2-2.4,2-5.9,3.6-8.5c1-1,1.5-2.9,3.6-1.7c2.3,1.4,3.6,0.8,3.8-1.9c4.4,2.2,3,5.7,1,8.2
	c-3.1,3.8-0.3,3.3,2,3.5C137.5,427.1,137.4,427.5,137.4,427.8z"/>
<path class="st76" d="M137.4,428.8c0.1-0.3,0.1-0.5,0.2-0.7c3.1,1.8,3.1,5.4,4.5,8.2c0.8,1.6,1.5,3.2,2.3,4.8
	c-0.3,1.7,2.1,3.3,0.1,5C140.1,441.2,138.1,435.3,137.4,428.8z"/>
<path class="st43" d="M138.6,425c4.2,1.7,8.7-0.2,13,0.9C147.1,427.1,142.7,428.3,138.6,425z"/>
<path class="st20" d="M137.4,428.8c2.4,5.7,4.7,11.5,7.1,17.2c-0.3,0-0.7,0-1,0c-1-0.6-1.9-1.3-2.9-1.9c-1.4-0.9-3.4-1-1.6-3.9
	c0.8-1.4-1.8-4.7-2.5-7.2C136.1,431.6,133.9,429.5,137.4,428.8z"/>
<path class="st77" d="M96.7,398.8c0.5-0.2,0.9-0.4,1.4-0.6c4.4,0.7,8.9,0.1,13.3,0.3c1.5,0.1,3.4-0.8,4.2,1.5c-2.2,2.2-3.6,4.8-4,8
	c-0.4,0.6-0.8,1.2-1.2,1.9c-0.3-0.4-0.6-0.7-0.9-1.1c-1.6-1.3-1.1-2.6,0.1-3.8c-4.4-2.8-9.5-1.2-14.4-2.1
	C95.7,401.6,96.2,400.2,96.7,398.8z"/>
<path class="st78" d="M122.6,427c1.8-3.4,1-7.3,1.9-10.9c0.4-1.4,0.8-2.7,1.2-4.1c2.9,1.9,2.9,4.9,2.9,7.9c-1.1,3.2-2,6.5-5.4,8.1
	C122.5,427.9,122.1,427.7,122.6,427z"/>
<path class="st79" d="M107.9,425.4c3.5-0.9,1.6,1.4,1.6,2.7c-1.2,3.1-3.6,2.8-6,1.9C103.6,427.2,103.1,423.7,107.9,425.4z"/>
<path class="st80" d="M97.5,426c-1.7,0-3.4,0.1-5.1,0.1c-0.5-0.3-0.8-0.7-1-1.2c0.1-4,4.3-3.1,6.2-4.9c1.2,1.1,1.8,2.5,1.9,4.1
	C98.9,424.7,98.2,425.4,97.5,426z"/>
<path class="st81" d="M103.5,430c2.2,0,4.3-0.4,6-1.9c0.9,1.6,2.8,0.2,5.3,2.1c-4.9,1-8.5,1.3-12.1-0.3
	C103,429.9,103.2,430,103.5,430z"/>
<path class="st82" d="M128.6,419.9c-1-2.6-1.9-5.3-2.9-7.9c1.6-1.5,1.8,0.9,2.8,1c-0.2,1.8,2.6,2,2.2,3.9
	C130,417.9,129.3,418.9,128.6,419.9z"/>
<path class="st83" d="M115.5,400c-5.7-2-11.8,0-17.5-1.9c5.7-0.7,11.8,1.5,17.2-2.1c0.7-0.5,1.5,1.8,2.3,0.1
	c1.6,0.8,1.3,2.2,0.9,3.3C117.9,401,116.6,400.2,115.5,400z"/>
<path class="st84" d="M85.8,421.5c-0.1,0.4-0.1,0.8-0.2,1.2c0.6,2-0.5,4.9,3.5,4.8c1.5,0,1.6,2.3,1.6,3.7c0.1,2.4-1.8,0.4-2.5,1
	c-1.5,1.4-3.4,0.4-5.3,0.4c40.3-14.6,28.8-6.8,16.5,0.5c1.5,1.3,9,17.5,8.5,19.6c-1.6,1.9-28.7,3.1-32,1.5c-2.2-0.9,6-17.6,4.5-20.6
	c1-2.7-23-5.1-19.1-7.2c3.4-1.7,20,2.6,17.1,1.5c-5.5-2.1-2.7-3.9-0.5-6.1c0.6,1,1.1,2,1.8,2.9c0.6,0.8,1.5,1.3,2.6,0.9
	c1.4-0.5,1.2-1.7,1-2.9c-0.3-1.4-0.4-2.9-0.5-4.3C85.7,417.5,86.8,418.4,85.8,421.5z"/>
<path class="st37" d="M83.7,438.8c-0.5,2.8-0.4,5.7-1.9,8.3c-0.1-0.4-0.2-0.7-0.2-1.1c-2.4-4.5-6.7-6.1-12.8-4.7
	c-2.7,0.6-5.4,1.1-8.2,1.6c1-0.6,2-1.3,3-1.9c3.2-0.6,6.5-0.7,8.8-3.6c1.4-1.7,3.4-0.4,5.1-0.1C79.6,437.7,81.6,438.3,83.7,438.8z"
	/>
<path class="st47" d="M40.4,449.8c-2.1-2.2-4.5-3.7-8.3-3.2c2.3-3.7,5.5-4.5,8.5-5.6c0.5,3,2.7,3.2,5,3.2
	C43.9,446.1,42.2,447.9,40.4,449.8z"/>
<path class="st70" d="M54.6,445.3c1.3-0.5,2.6-0.9,3.9-1.4c1,0.3,3.1,0.2,2.5,1.6c-1,2.2-3.6,3.1-5.9,2.8
	C53,448,53.6,446.5,54.6,445.3z"/>
<path class="st85" d="M92.6,424.9c-0.1-1.9-0.9-3.1-3-3c-0.8-3.2-0.8-3.2,1.3-6.3c1.7,1.4-3.3,4.7,0.9,4.8c4.8,0.1,1.3-4.7,3.4-7
	c0.7,2.3,0.9,4.7,2.5,6.5C96,421.6,94.3,423.3,92.6,424.9z"/>
<path class="st86" d="M109.5,405c0,1.3-0.1,2.5-0.1,3.8c-0.9,1.7-1.8,3.5-3.6,0.6c-0.8-1.2-1.7-2.4-2.8-4
	C105.4,404.3,107.5,404.5,109.5,405z"/>
<path class="st87" d="M91.6,401.9c-1.1-2.7-3.3-2.9-5.8-2.9c-3.6,0-7.2,0-10.8-1.1c6.2,0,12.4,0,18.6,0
	C93.6,399.5,93,400.9,91.6,401.9z"/>
<path class="st88" d="M122.6,427c0.2,0.3,0.4,0.7,0.6,1c-0.2,0.6-0.3,1.5-0.8,1.7c-1.1,0.6-1.5-0.4-1.4-1.3c0.4-3.2-0.4-6.5,1.5-9.6
	C122.6,421.6,122.6,424.3,122.6,427z"/>
<path class="st89" d="M114.2,24"/>
<path class="st5" d="M42.1,400.2c-4.7,8-9.4,16.1-14,24.1c-6.9,12-13.9,24-20.8,36c4,4.7,5.2,4.8,8,0.6c-0.8-4.6,1.2-7.4,6.3-8.9
	c0.8-0.2,1.6-0.2,2.4-0.3c2.3-0.2,5.2-0.1,5.8-2.7c0.7-2.9-2.8-1.8-4.1-3c-0.4-0.3-0.5-0.8-0.7-1.3c-1.2-2.3,0.7-3.8,1.3-5.6
	c2.7-5.3,6.5-10.1,8.4-15.9c0.3-0.6,0.7-1.2,0.9-1.9c1.9-3.7,3.9-7.3,8-8.9c1.3-0.5,2.3-1.3,2.1-2.9c-0.1-1.8-0.2-3.5,0.2-5.3"/>
<path class="st6" d="M42.1,400.2c2.5,2.6,1.6,5.9,2,8.9c0.9,2.1,2.8,1.2,4.2,1.4c2.8-1.1,5.6,2.8,8.5,0.1c1.6-2.8,0.2-4.6-2.1-5.9"
	/>
<path class="st40" d="M6,462.2c-1.4,2.1,3.9,3.7,0.3,5.9c1.1,1.7,2.7,1.5,4.4,1.1c0.5-0.1,1.1-0.3,1.5-0.5
	c5.5-4.1,12.6-4.5,18.3-8.2c0.7-0.6,1-1.3,0.9-2.3c0-1.6-1-2.5-2.2-3.1c-2.7-0.9-6.1,1-8.4-1.8c-3.9,0.4-6,2.9-7.7,6.1
	c-1.2,4.9-4.1-0.2-5.9,1C6.8,460.9,6.4,461.6,6,462.2z"/>
<path class="st41" d="M59.4,442.1c-1-2.1,0.7-5.5-2.4-6.5c-3.3-1.1-5.4,1.6-7.6,3.4c-2.8,2.2-5.4,4.8-9.1,5.7
	c-1.2,0-2.2,0.7-3.3,0.9c-1.1-0.2-1.9-0.9-2.9-1.3c-4.8-0.5-9.7-1.7-14,1.8c-1.2,0.7-1.3,1.6,0.2,1.9c2.1,0.4,4.2,0.4,6.6,1
	c-5.9,2-14.6,0.2-13.8,10.4c2.6-1.4,5.3-2.8,7.9-4.2c1.3-0.6,2.8-0.1,4.1-0.4c0.7,0.3,1.3,0.7,2.1,0.9c0.5,0,1,0.1,1.4,0.1
	c2.3,0.8,4.3-0.3,6.4-0.8c6.1-2.8,12.4-5,18.6-7.4c2.1-0.8,4.6-1.3,5.7-3.8"/>
<path class="st42" d="M33,422.1c-3,5.4-6,10.7-9,16.1c1.2,2.3,2.9,3.2,5.6,2.8c3.2-0.5,6.5-0.4,9.7-1.3c3.8-0.2,4.8-3.4,5.7-6.1
	c0.8-2.4,2-4.5,3-6.8c0.2-0.5,0.4-1,0.5-1.5c0.1-0.5,0.2-1.1,0.3-1.6c0.7-3.2-0.3-4.9-3.8-4.7c-0.5,0.1-1,0.4-1.4,0.8
	c-2.3,3.8-6,2.6-9.3,2.7C33.9,422.3,33.5,422.2,33,422.1z"/>
<path class="st43" d="M48.2,408.2c-1.8-1.7-2.7,0.7-4,0.9c-6.8,1.1-8.5,6.5-10.3,11.9c4,2.9,8.1,2.2,12.2,0.3c2.1,0.2,0.7,1.8,1,2.7
	c1.7,2,3.3,1.7,5-0.1c1.6-1.6,1.7-3.7,0.2-4.8c-3-2.2-1.8-4.1-0.3-6.2C52.2,410,50.4,408.9,48.2,408.2"/>
<path class="st44" d="M40.1,438.2c-5.4,0-10.7,0-16.1,0c-1.6,2.5-3.4,4.9-3.9,7.9c4.6,0.6,9.5-1,14,1.2c0.9,2,2.8-0.3,3.9,0.8
	c0.7-0.6,1.4-1.2,2-1.7c0.5-1.1,2-1.3,2.4-2.6c0.1-0.5,0-0.9-0.1-1.4C42,440.8,41.7,439.2,40.1,438.2z"/>
<path class="st45" d="M46.1,421.3c-4.1-0.1-8.1-0.2-12.2-0.3c-0.3,0.4-0.6,0.7-0.9,1.1c0,0.3,0,0.7,0,1c4.4-0.2,8.9,2.2,13-0.9
	C46.1,421.9,46.1,421.6,46.1,421.3z"/>
<path class="st46" d="M53,406.1c2.5,0.4,3.1,2,3.1,4.2c0,0.2,0.1,0.4,0.1,0.6c0.2,0.4,0.4,0.8,0.7,1.1c1,0.9,1.3,2.4,2.9,2.6"/>
<path class="st46" d="M48.2,408.2c0.8,1.2,2.1,2.2,1.9,3.9c-0.9,1.8-1,3.6,0.8,4.8c2.1,1.3,3.3-0.3,4.4-1.9c0.4-1.6,3.3-2.8,0.8-4.9
	c0,0,0.1,0.1,0.1,0.1c-2.2-1.8-5.6-1.2-7.5-3.7"/>
<path class="st73" d="M30.1,458.2c2.4-0.8,5-1.3,7.1-2.9c0-2.2-2-1.3-3-1.9c-2,0.7-4,1.3-6,2c-0.3,0-0.6,0.1-0.8,0.1
	c0.2,0.2,0.4,0.4,0.6,0.6C28.7,456.8,29.4,457.5,30.1,458.2z"/>
<path class="st74" d="M28,456.1c0.1-0.2,0.1-0.4,0.2-0.7c-0.6-0.1-1.1-0.2-1.7-0.4c-0.1-1.1,0-2.3-1.3-2.8c-1.6,0.6-3,1.5-4.1,2.8
	C22.8,459.2,25.5,456.6,28,456.1z"/>
<path class="st45" d="M58.2,443.5c-7.7,4-16,6.6-24,9.9c1,0.6,2,1.3,3,1.9c6.3-2.4,12.6-4.7,18.9-7.1c5.6,1.1,13.1-1.7,15.9-6"/>
<path class="st75" d="M59.7,426.1c-1.1-2.2-4.3-4-7.1-2.7c-1.8,0.8-3.8,0.7-5.5,1.7l-0.2,0.3c-0.2,0.4-0.4,0.8-0.4,1.3
	c-0.3,5.3-2.3,9.9-4.9,14.4c-0.4,0.8-0.8,1.4-0.6,2.3c-0.8,0.9-1.3,1.9-1,3.1c6.3-1,9.9-7,16.1-8.6c1.6,1.1,0.4,3.5,1.9,4.7"/>
<path class="st65" d="M38,448.1c-0.7-3-2.6-0.8-3.9-0.8c-1.2,0.7-3.3,1-2.3,2.9c0.9,1.8,2.2,0,3.3-0.4
	C36.1,449.3,37.1,448.6,38,448.1z"/>
<path class="st65" d="M25.1,452.3c-0.1,1.2-0.1,2.3,1.3,2.8c0.1-0.1,0.3-0.2,0.4-0.3c1.1-1.2,4.4-1.5,3.3-3.5
	C28.7,448.8,26.9,452,25.1,452.3z"/>
<path class="st27" d="M61,424.4c-2.2-2.4-2-5.9-3.6-8.5c-1-1-1.5-2.9-3.6-1.7c-2.3,1.4-3.6,0.8-3.8-1.9c-4.4,2.2-3,5.7-1,8.2
	c3.1,3.8,0.3,3.3-2,3.5c0.1,0.4,0.1,0.7,0.2,1.1c1.6,0.1,3.3,0.1,4.9,0.3c2.5,0.2,4.6-0.1,5.5,3.6"/>
<path class="st76" d="M47.2,426c-0.1-0.3-0.1-0.5-0.2-0.7c-3.1,1.8-3.1,5.4-4.5,8.2c-0.8,1.6-1.5,3.2-2.3,4.8c0.3,1.7-2.1,3.3-0.1,5
	C44.5,438.4,46.5,432.5,47.2,426z"/>
<path class="st43" d="M46,422.2c-4.2,1.7-8.7-0.2-13,0.9C37.5,424.3,41.9,425.5,46,422.2z"/>
<path class="st20" d="M47.2,426c-2.4,5.7-4.7,11.5-7.1,17.2c0.3,0,0.7,0,1,0c1-0.6,1.9-1.3,2.9-1.9c1.4-0.9,3.4-1,1.6-3.9
	c-0.8-1.4,1.8-4.7,2.5-7.2C48.5,428.8,50.7,426.7,47.2,426z"/>
<path class="st78" d="M58.9,409.1c-2.9,1.9-2.9,4.9-2.9,7.9c1.1,3.2,2,6.5,5.4,8.1"/>
<path class="st82" d="M58.9,409.1c-1.6-1.5-1.8,0.9-2.8,1c0.2,1.8-2.6,2-2.2,3.9c0.7,1,1.4,2,2.1,3
	C56.9,414.4,57.9,411.8,58.9,409.1"/>
</svg>
