<?xml version="1.0" encoding="utf-8"?>
<!-- Generator: Adobe Illustrator 22.1.0, SVG Export Plug-In . SVG Version: 6.00 Build 0)  -->
<svg version="1.1" id="Layer_1" xmlns="http://www.w3.org/2000/svg" xmlns:xlink="http://www.w3.org/1999/xlink" x="0px" y="0px"
	 viewBox="0 0 347 34" style="enable-background:new 0 0 347 34;" xml:space="preserve">
<style type="text/css">
	.st0{fill:#F47B01;}
	.st1{fill:#FEC829;}
	.st2{fill:#F8EE78;}
	.st3{fill:#EE7801;}
	.st4{fill:#EF7801;}
	.st5{fill:#ED7801;}
	.st6{fill:#ED7701;}
</style>
<path class="st0" d="M222.3,7.3c34,0.3,63.5,0.9,87,2.1c10.8,0.5,19.4,1.2,28.2,1.8c3.4,0.2,7.8,0.4,8.9,0.7
	c0.2,0.1,0.5,0.1,0.6,0.2c0.2,0.1,0.4,0.2-1.8,0.2c-2.2,0-3.7,0-4.6-0.1c-4-0.3-9.7-0.5-17-0.6c-1.6,0-3.3,0-4.9-0.1
	c-6.3,0-10,0.2-8.5,0.5c1.2,0.2,2.6,0.4,3.8,0.6c4.4,0.9-2.7,1.6-19.1,2.1c-1.7,0.1-3.6,0.1-5.3,0.1c-4.1,0.1-5.5,0.3-3.6,0.5
	c1.6,0.2,2.9,0.4,4.3,0.6c2.1,0.3,1.4,0.5-1,0.8c-0.9,0.1-2.5,0.2-4.8,0.1c-3.3,0-1-0.1-0.9-0.2c0.4-0.2-1.6-0.4-6.4-0.5
	c-5-0.1-12.4-0.1-15,0.1c-1.8,0.1-0.9,0.2,0.4,0.3c3.1,0.2,6.7,0.3,10.8,0.5c11.1,0.3,20.5,0.8,28.1,1.3c11.6,0.8,10.5,1.7-3.1,2.4
	c-4.3,0.2-8.1,0.5-14.2,0.6c-1.6,0-3.5,0.1-5.2,0c-1.9-0.1-0.7-0.2-0.1-0.2c1.4-0.2,2.1-0.4,2.6-0.6c0.5-0.2,0.2-0.4-2.1-0.6
	c-0.7-0.1-0.8-0.2-3.1-0.1c-1.8,0-1.1,0.1-1,0.2c0.8,0.3-2.1,0.6-6,0.9c-1.4,0.1-3.3,0.2-5.6,0.1c-2.4,0-1.4-0.1-1.3-0.2
	c0.6-0.4-2.9-0.6-10.1-0.8c-3.2-0.1-6.4-0.1-9.7-0.2c-7.2-0.1-12.6-0.1-16,0.2c-3.4,0.2-2.7,0.5,2.3,0.8c4.7,0.2,10.2,0.4,16.5,0.5
	c15.5,0.2,27.6,0.7,35.8,1.3c8.8,0.6,15.2,1.3,10.4,2.1c-1.5,0.2-3.9,0.5-7.4,0.7c-1.1,0.1-2.4,0.1-4.3,0.1c-2.4,0-1.7-0.1-1.6-0.2
	c0.3-0.3-1.5-0.6-3.6-0.8c-1.6-0.2-5.1-0.3-9.7-0.4c-2.5,0-5,0-6.7,0.1c-1.6,0.1-1,0.2,0.3,0.3c2.2,0.2,4.5,0.3,6.7,0.5
	c6.6,0.5,1.9,1.4-9.4,1.7c-4,0.1-8.5,0.2-12.9,0.3c-1.2,0-2.5,0.1-3.7,0c-1.3-0.1-0.1-0.1,0.5-0.2c3-0.2,1-0.5-2.1-0.7
	c-2.9-0.2-7.5-0.1-11.6-0.1c-4.8,0-7,0.2-6.7,0.4c0.5,0.3,3.9,0.6,7.8,0.9c2.7,0.2,5.3,0.4,6.3,0.6c1.6,0.4-0.8,0.7-8,0.9
	c-0.9,0-1.9,0.1-2.9,0.1c-11.6,0.3-13.8,0.8-6.3,1.3c1.1,0.1,4.3,0.2,1.7,0.3c-2.1,0.1-4.2,0-6.1-0.1c-7.8-0.2-15.4-0.5-21.9-0.8
	c-7.3-0.3-9.7-0.7-7.5-1.2c0.8-0.2,1.6-0.3,2.5-0.5c0.8-0.2-0.1-0.3-1.6-0.4c-1-0.1-2.2-0.1-4.4-0.1c-2,0-3.1,0.1-3.5,0.2
	c-0.7,0.2-1.4,0.4-2.1,0.5c-0.5,0.1-2.1,0.2-4.6,0.2c-2.4,0-1.3-0.1-1.4-0.2c-0.2-0.2-2.9-0.3-5.8-0.4c-4.4-0.1-9-0.3-12.4-0.5
	c-8-0.4-7.9-0.9,0.4-1.3c4.1-0.2,8.3-0.4,12.1-0.6c3.9-0.2,3.5-0.4-1.5-0.6c-3.6-0.1-7.4-0.3-11.5-0.4c-9-0.2-16.2-0.1-20.1,0.3
	c-3,0.3-7.8,0.6-15.7,0.6c-1.3,0-2.8,0-3.7,0c-1.1-0.1,0.8-0.1,1.6-0.1c3.8-0.2,3.7-0.3-0.9-0.5c-5.5-0.2-11.3-0.4-16.9-0.6
	C79.3,23.2,78,22.6,88.9,22c3.4-0.2,7.4-0.4,11.6-0.5c4.6-0.2,7.9-0.4,10.2-0.6c2.1-0.2,0.6-0.4-3.6-0.5c-8.9-0.3-22-0.2-28.2,0.2
	c-1.8,0.1-3,0.2-2.4,0.4c0.4,0.1,0.5,0.2-1.5,0.2c-1.9,0-3.3,0-4.5-0.1c-6-0.3-8.8-0.6-6-1c1.1-0.2,2.4-0.3,3.5-0.5
	c0.9-0.1,1.8-0.3,1.3-0.4c-0.7-0.2-1.2-0.4-7-0.5c-5.4,0-6.7,0.2-8.2,0.3c-1.8,0.2-14.4,0.4-19,0.4c-2.3,0-1-0.1-0.1-0.1
	c8.9-0.3,8.8-0.7,5.3-1.2c-2-0.2-3.2-0.5-5-0.8c-3.7-0.5-0.7-1,8.4-1.4c3.5-0.1,7.5-0.3,11.1-0.4c3.6-0.1,6.3-0.3,6.8-0.5
	c0.3-0.2-1-0.3-4.2-0.3c-3.1-0.1-5.4,0-7.2,0.1c-1.4,0.1-3,0.2-4.5,0.3c-2.7,0.2-6.4,0.3-11.1,0.3c-9.2,0-16.5,0.2-20.3,0.6
	c-0.6,0.1-1.3,0.1-3,0.1c-2.1,0-2.5-0.1-2.9-0.2c-1.5-0.2-0.6-0.5,3.1-0.7c3.2-0.2,6.6-0.3,9.9-0.5c6.7-0.3,9.1-0.7,6.3-1.2
	c-2.4-0.4-4-0.8-7-1.2c-11.2-1.4,2.4-3.3,29.2-4.2c3.3-0.1,6.3-0.2,10.3-0.3c0.3,0.2,1.2,0.4,0.4,0.6C60,8.8,59.7,9,59.4,9.3
	c-0.3,0.2,1.3,0.4,3.3,0.6c0.8,0.1,2,0.1,4,0.1c2.1,0,0.7-0.1,0.6-0.2c-0.1-0.1-0.5-0.1-0.6-0.2c-0.1-0.2,2.3-0.4,6.6-0.4
	c3.5-0.1,7,0,9.4,0.1c3.1,0.2,0.2,0.3-1.7,0.4c-3.3,0.2-7.5,0.4-10.9,0.7c-9.9,0.7-18,1.4-15,2.2c2.6,0.8,12.5,1.3,24.7,1.7
	c1.5,0.1,3.6,0.1,5.6,0.1c1.9-0.1,0.1-0.2-0.5-0.2c-2-0.2-3.8-0.5-4.5-0.8c-0.5-0.2-0.6-0.4,2.2-0.6c2,0.1,1.9,0.2,2.2,0.3
	c0.7,0.3,3.9,0.5,7.4,0.7c1,0.1,2.4,0.1,4.3,0.1c2,0,1.3-0.1,1-0.2c-2.4-0.5,2.1-0.8,10.6-1.1c8.8-0.3,16.1-0.1,18,0.3
	c0.8,0.2-0.4,0.4-3,0.6c-3.1,0.2-7,0.4-11.6,0.5c-6.9,0.2-11.9,0.5-16.7,0.8C84.7,15.5,83.3,16.3,83,17c-0.2,0.5,3.9,0.9,10.5,1.3
	c1,0.1,2.2,0.1,4.1,0.1c2.3,0,1.1-0.1,1.1-0.2c0-0.2-0.1-0.5,0.1-0.7c0.1-0.2,1.7-0.3,4.7-0.4c1.8-0.1,3.7-0.1,6.1-0.1
	c2.6,0.1,3.1,0.2,2.4,0.3c-1.1,0.2-2.4,0.4-3.7,0.5c-5.1,0.7,3.8,1.5,19.5,1.8c2.1,0,4.5,0.1,6.4,0c2.1-0.1-1-0.2-1.3-0.2
	c-1.7-0.4-0.3-0.7,8.3-0.7c5.3,0,7.7,0.1,8.2,0.4c0.7,0.4-2.2,0.8-4.7,1.1c-4.4,0.6-0.9,1.1,11.7,1.4c6.2,0.2,8.9,0.4,9.4,0.7
	c0.3,0.2-0.6,0.4-2.4,0.6c-0.5,0.1-1,0.1,0.4,0.2c1.4,0,2.5,0,3.4,0c6-0.3,11.5-0.5,15.8-0.9c5-0.4,5.8-0.8,3.1-1.2
	c-1.2-0.2-2.7-0.4-4-0.6c-0.7-0.1-1.1-0.2-0.4-0.3c0.6-0.1,0.5-0.2,3.2-0.2c2.9,0,3.5,0.1,4.1,0.2c1.1,0.2,2.2,0.3,3.5,0.5
	c0.5,0.1,1.5,0.1,3.1,0.1c1.1,0,1.3-0.1,1.2-0.1c-0.7-0.3,3.2-0.5,6.7-0.6c11.4-0.6,10.9-1.2-1.4-1.8c-1.3-0.1-2.6-0.1-3.9-0.2
	c-11.4-0.5-11.3-0.7,0.4-1.3c6.7-0.3,13.2-0.3,17.8,0.1c1.3,0.1,2.5,0.2,4,0.3c2.5,0.2,6,0.3,10.3,0.3c1.1,0,2.4,0,3.2,0
	c0.9-0.1-0.2-0.1-1-0.1c-4.7-0.2-3.4-0.4-0.2-0.6c3.7-0.2,7.3-0.5,11-0.7c3.7-0.2,5.1-0.5,5.5-0.7c0.7-0.6-7.4-1-16.5-1.3
	c-7-0.3-12.6-0.6-15.2-1c0.9-0.1,1.7-0.2,2.6-0.3c0.3,0,0.6,0,1-0.1l0,0c0.5,0,1.1,0,1.6,0c10.5-0.3,23.6,0,24.6,0.6
	c0.1,0.1,0.4,0.1,2,0.1c1.9,0,2.7,0,3.5-0.1c4.6-0.4,4.4-0.7,0.4-1.1c-3-0.3-6.3-0.6-5.6-0.9c0.3-0.1,0.7-0.3,4.1-0.3
	c3.6,0,5.6,0.1,6.6,0.2c2.4,0.3,7.7,0.4,14,0.4c1.3,0,2.9,0,3.5,0c0.7-0.1-0.9-0.1-1.8-0.1c-5.1-0.2-7.7-0.5-7-0.8
	c0.7-0.4,1.2-0.7,2-1.1c1.1-0.5-2.3-1-11.3-1.3c-4.5-0.2-9.3-0.3-14-0.5l0,0c-0.3,0-0.7,0-1-0.1C236.3,7.4,228.7,7.4,222.3,7.3z"/>
<path class="st1" d="M217.4,13c2.5,0.4,8.1,0.7,15.2,1c9.1,0.3,17.2,0.7,16.5,1.3c-0.3,0.3-1.8,0.5-5.5,0.7c-3.8,0.2-7.4,0.5-11,0.7
	c-3.2,0.2-4.5,0.4,0.2,0.6c0.8,0,1.9,0.1,1,0.1c-0.8,0-2.1,0-3.2,0c-4.2,0-7.8-0.1-10.3-0.3c-1.5-0.1-2.7-0.2-4-0.3
	c-4.6-0.4-11.1-0.4-17.8-0.1c-11.7,0.5-11.8,0.7-0.4,1.3c1.3,0.1,2.6,0.1,3.9,0.2c12.3,0.6,12.8,1.1,1.4,1.8
	c-3.5,0.2-7.4,0.4-6.7,0.6c0.1,0,0,0.1-1.2,0.1c-1.6,0-2.6,0-3.1-0.1c-1.3-0.2-2.4-0.3-3.5-0.5c-0.7-0.1-1.2-0.2-4.1-0.2
	c-2.7,0-2.6,0.1-3.2,0.2c-0.7,0.1-0.3,0.2,0.4,0.3c1.3,0.2,2.8,0.4,4,0.6c2.7,0.4,2,0.8-3.1,1.2c-4.3,0.3-9.9,0.6-15.8,0.9
	c-0.9,0-2,0.1-3.4,0c-1.4,0-0.9-0.1-0.4-0.2c1.9-0.2,2.8-0.4,2.4-0.6c-0.5-0.3-3.1-0.5-9.4-0.7c-12.6-0.3-16.1-0.8-11.7-1.4
	c2.5-0.4,5.4-0.7,4.7-1.1c-0.5-0.3-2.9-0.4-8.2-0.4c-8.6,0-10,0.3-8.3,0.7c0.3,0.1,3.4,0.2,1.3,0.2c-1.9,0.1-4.3,0-6.4,0
	c-15.8-0.3-24.7-1.1-19.5-1.8c1.3-0.2,2.6-0.4,3.7-0.5c0.7-0.1,0.3-0.2-2.4-0.3c-2.4-0.1-4.3,0-6.1,0.1c-3.1,0.1-4.6,0.3-4.7,0.4
	c-0.1,0.2-0.1,0.5-0.1,0.7c0,0.1,1.2,0.2-1.1,0.2c-1.9,0-3-0.1-4.1-0.1C87,17.9,82.8,17.5,83,17c0.3-0.7,1.6-1.5,11.7-2.1
	c4.8-0.3,9.8-0.6,16.7-0.8c4.7-0.1,8.5-0.3,11.6-0.5c2.5-0.2,3.8-0.4,3-0.6c-1.9-0.5-9.2-0.6-18-0.3c-8.5,0.3-13,0.6-10.6,1.1
	c0.3,0.1,1,0.1-1,0.2c-1.9,0-3.3,0-4.3-0.1c-3.5-0.2-6.7-0.5-7.4-0.7c-0.3-0.1-0.2-0.2-2.2-0.3c-2.8,0.2-2.7,0.4-2.2,0.6
	c0.7,0.3,2.5,0.5,4.5,0.8c0.6,0.1,2.4,0.2,0.5,0.2c-2,0.1-4.1,0-5.6-0.1c-12.1-0.5-22.1-1-24.7-1.7c-2.9-0.9,5.1-1.6,15-2.2
	c3.3-0.2,7.5-0.4,10.9-0.7c1.9-0.1,4.8-0.3,1.7-0.4c-2.5-0.1-5.9-0.1-9.4-0.1c-4.4,0.1-6.8,0.2-6.6,0.4c0,0.1,0.4,0.1,0.6,0.2
	c0.1,0.1,1.5,0.1-0.6,0.2c-2,0-3.2,0-4-0.1c-2-0.2-3.6-0.4-3.3-0.6C59.7,9,60,8.8,60.9,8.6c0.8-0.2-0.1-0.4-0.4-0.6c0,0,0.1,0,0.1,0
	c0.5,0,1,0,1.4,0c0,0-0.1,0-0.1,0C63,8,63.7,8,64.2,8c0,0-0.1,0-0.1,0c1.1,0,1.9,0,2.4-0.1c0,0-0.2,0-0.2,0c0.5,0,1,0,1.5,0
	c0,0,0,0,0,0c1,0,1.8,0,2.3-0.1c0,0-0.1,0-0.1,0c1,0,1.8,0,2.3-0.1c0,0-0.1,0-0.1,0c1.2,0,2.1,0,2.9-0.1c0,0-0.1,0-0.1,0
	c1.2,0,2.3,0,3-0.1c11.1-0.2,22.4-0.4,34.6-0.4c-1.4,0.1-3.4,0.1-4.1,0.2c-1.7,0.2-3.9,0.5-5.3,0.7c-1.1,0.2-0.8,0.4,0.8,0.6
	c0.5,0.1,0.8,0.1,2.6,0.1c2.2,0,1.8-0.1,2-0.2c0.5-0.1,1.7-0.2,3.6-0.3c3-0.2,6.7-0.2,11.1-0.1c4.2,0.1,6,0.3,5.4,0.5
	c-0.4,0.1-1.7,0.2-3.2,0.4c-2.2,0.2-5.6,0.3-8.6,0.4c-12.4,0.6-13.8,1.1-4.7,1.8c1.9,0.1,3.8,0.3,5.7,0.4c1.7,0.1,2,0.3,0.3,0.4
	c-0.6,0.1-2.8,0.1-0.9,0.2c1.5,0,3.3,0,4.7,0c4-0.1,5.6-0.3,7.8-0.5c3-0.3,6.9-0.3,11.2-0.1c8.1,0.4,8.4,0.6,1,1
	c-0.8,0-1.5,0.1-2.5,0.1c-11.1,0.5-9.2,1.1-2.1,1.6c2.2,0.2,4.5,0.3,4,0.5c-0.1,0-0.2,0.1,1,0.1c1.4,0,2,0,2.4-0.1
	c0.8-0.1,1.4-0.2,2.2-0.3c0.5-0.1,0.6-0.2,3.2-0.2c2.2,0,2.2,0.1,2.2,0.2c0,0.2-1.3,0.4-2.7,0.5c-6,0.7,2.1,1.3,11.6,1.8
	c0.6,0,1.4,0.1,2.4,0c0.9,0,0.9-0.1,0.7-0.1c-0.4-0.1-0.9-0.1-1.2-0.2c-1.2-0.4-0.3-0.7,8-1c7.2-0.2,8.6-0.5,8-0.9
	c-0.3-0.2-1.5-0.4-2.5-0.5c-1.3-0.2-1.6-0.5-1.1-0.7c0.3-0.2,2.4-0.3,6.6-0.3c3.9,0,4.9,0.1,4.9,0.3c0,0.1-0.1,0.1,0,0.2
	c0.2,0.1-2.8,0.2-0.5,0.3c2.5,0.1,5.2-0.1,7.7-0.1c2.3,0,4-0.1,5.2-0.2c5-0.4,8.4-0.8,4.5-1.3c-0.8-0.1-1.3-0.2-1.8-0.3
	c-0.4-0.1-0.7-0.2,2-0.3c2.7,0,4.3,0.1,5.2,0.1c2.5,0.2,2.2,0.5,2.2,0.7c0,0.1-2.4,0.3,0.3,0.3C214.6,13.2,215.1,13,217.4,13z"/>
<path class="st2" d="M217.4,13c-2.3,0.1-2.8,0.3-5.5,0.2c-2.7-0.1-0.3-0.2-0.3-0.3c-0.1-0.2,0.2-0.5-2.2-0.7c-1-0.1-2.6-0.2-5.2-0.1
	c-2.7,0-2.4,0.2-2,0.3c0.4,0.1,0.9,0.2,1.8,0.3c3.9,0.5,0.5,0.9-4.5,1.3c-1.2,0.1-2.9,0.2-5.2,0.2c-2.5,0-5.2,0.2-7.7,0.1
	c-2.3-0.1,0.7-0.2,0.5-0.3c-0.2-0.1,0-0.1,0-0.2c0-0.2-1-0.3-4.9-0.3c-4.1,0-6.2,0.1-6.6,0.3c-0.4,0.2-0.2,0.5,1.1,0.7
	c1,0.2,2.2,0.4,2.5,0.5c0.6,0.3-0.8,0.7-8,0.9c-8.3,0.2-9.3,0.6-8,1c0.2,0.1,0.8,0.1,1.2,0.2c0.2,0,0.3,0.1-0.7,0.1
	c-1,0-1.8,0-2.4,0c-9.5-0.5-17.5-1.1-11.6-1.8c1.4-0.2,2.8-0.4,2.7-0.5c0-0.1,0-0.2-2.2-0.2c-2.6,0-2.7,0.1-3.2,0.2
	c-0.8,0.1-1.4,0.2-2.2,0.3c-0.3,0-1,0.1-2.4,0.1c-1.2,0-1.1-0.1-1-0.1c0.4-0.2-1.9-0.3-4-0.5c-7.1-0.5-9-1.1,2.1-1.6
	c0.9,0,1.7-0.1,2.5-0.1c7.4-0.4,7.2-0.7-1-1c-4.4-0.2-8.2-0.2-11.2,0.1c-2.1,0.2-3.8,0.4-7.8,0.5c-1.4,0-3.3,0.1-4.7,0
	c-1.9-0.1,0.3-0.1,0.9-0.2c1.7-0.1,1.3-0.3-0.3-0.4c-1.8-0.1-3.8-0.3-5.7-0.4c-9.1-0.7-7.7-1.2,4.7-1.8c3-0.1,6.4-0.3,8.6-0.4
	c1.4-0.1,2.8-0.2,3.2-0.4c0.6-0.2-1.2-0.4-5.4-0.5c-4.4-0.1-8.1,0-11.1,0.1c-1.9,0.1-3.1,0.2-3.6,0.3c-0.3,0.1,0.2,0.2-2,0.2
	c-1.8,0-2.1-0.1-2.6-0.1c-1.6-0.2-1.9-0.4-0.8-0.6c1.4-0.2,3.6-0.5,5.3-0.7c0.7-0.1,2.7-0.1,4.1-0.2c7.3-0.1,15.1-0.1,22.7-0.2
	c29.3-0.1,58.4-0.1,87.2,0.2c6.4,0.1,13.9,0.1,20,0.3c0.3,0,0.7,0,1,0.1c0,0,0,0,0,0c1.6,0.8-2.2,1.5-14.8,2
	c-1.8,0.1-3.9,0.2-6.4,0.2c-2.8-0.1,0.1-0.2,0.5-0.3c0.3-0.1,0.9-0.1,1.3-0.2c1.1-0.2,2.4-0.5-0.2-0.7c-2,0.3-2.5,0.5-6.2,0.8
	c-1,0.1-1.6,0.2-3.7,0.1c-1.8,0-0.9-0.1-0.6-0.2c1.6-0.3-0.8-0.6-6.4-0.8c-2.2-0.1-4.5-0.2-7.9-0.1c-3.6,0.1-4.9,0.2-5.5,0.4
	c-1.4,0.4,2.6,0.7,8.3,0.9c12.3,0.5,18.2,1.1,19.7,1.8c0.9,0.4,0.6,0.8-0.7,1.2c0,0,0,0,0,0c-0.3,0-0.6,0-1,0.1
	C219.1,12.8,218.2,12.9,217.4,13z"/>
<path class="st3" d="M151,29.4c-0.4-0.2,2.2-0.3,5.6-0.5c3.3-0.1,7.8-0.2,9.3-0.4c0.3,0,1.2-0.1,2.3,0c1.1,0,1.8,0.1,1.6,0.1
	c-1.6,0.4,2.8,0.6,5.8,0.9c2.7,0.3,3.2,0.5,0.9,0.8c-1.8,0.2-3.7,0.4-5.7,0.6c-0.9,0.1-3,0.1-5.1,0.1c-2.6,0-2.5-0.1-2.8-0.2
	c-1-0.3-4-0.5-7.2-0.7C152.5,29.9,150.9,29.7,151,29.4z"/>
<path class="st4" d="M34.1,21.9c-0.5,0.2,0.6,0.3,1.9,0.5c2.7,0.3,2.3,0.6-1,0.9c-2.9,0.3-5.7,0.5-8.7,0.8c-0.8,0.1-2.1,0.2-4.3,0.1
	c-2.4,0-0.7-0.1-0.6-0.2c0.6-0.3-1.6-0.5-4.3-0.7c-5.3-0.4-4.1-0.7,4.3-1.1c3.1-0.1,5.7-0.2,7.9-0.4c1-0.1,2.2-0.1,3.9-0.1
	C35.8,21.8,33.9,21.9,34.1,21.9z"/>
<path class="st5" d="M323.9,15.5c-1.8,0.4-5.5,0.8-12.2,1.1c-1.3,0.1-3.2,0.1-5.1,0.1c-2.3-0.1-1-0.2-0.4-0.2
	c2.3-0.3,2.2-0.6,1.1-0.9c-1.1-0.3-1.2-0.6,4.1-0.9c3.7-0.2,6.3-0.2,8.1,0.1C321.5,15,323.8,15.2,323.9,15.5z"/>
<path class="st6" d="M226.8,29.8c0-0.5,5.8-0.8,12.7-1.1c2.7-0.1,5-0.1,6.4,0.1c2.5,0.3,1.8,0.5-2.6,0.8c-2.7,0.1-5.9,0.3-8.8,0.4
	c-1.8,0.1-3.8,0.2-6.3,0.1C225.1,30,227.4,29.9,226.8,29.8z"/>
<path class="st0" d="M143.7,9.2c-0.2,0.5-0.7,0.8-1.2,0.7C142.7,9.3,143.1,9.2,143.7,9.2z"/>
<path class="st0" d="M144.9,8.5c-0.2,0.5-0.7,0.8-1.3,0.7C143.8,8.6,144.3,8.5,144.9,8.5z"/>
<path class="st0" d="M130.8,9.5c-0.3,0.5-0.7,0.7-1.2,0.6C129.8,9.6,130.2,9.4,130.8,9.5z"/>
<path class="st0" d="M132,8.9c-0.3,0.5-0.7,0.7-1.3,0.6C131,9,131.5,8.8,132,8.9z"/>
<path class="st0" d="M133.5,8.2c-0.4,0.4-0.9,0.7-1.5,0.7C132.3,8.3,132.9,8.2,133.5,8.2z"/>
<path class="st0" d="M135.1,7.4c-0.4,0.6-0.9,0.8-1.6,0.8C133.8,7.6,134.5,7.5,135.1,7.4z"/>
<path class="st0" d="M142.5,9.9c-0.3,0.2-0.5,0.4-0.8,0.5C141.8,10,142.1,9.9,142.5,9.9z"/>
<path class="st0" d="M129.5,10.1c-0.3,0.2-0.5,0.3-0.8,0.5C128.9,10.2,129.2,10.1,129.5,10.1z"/>
<path class="st1" d="M220.9,12.6c1.3-0.4,1.5-0.8,0.7-1.2c-1.5-0.7-7.4-1.3-19.7-1.8c-5.7-0.2-9.7-0.5-8.3-0.9
	c0.6-0.2,1.8-0.3,5.5-0.4c3.4-0.1,5.7,0.1,7.9,0.1c5.5,0.2,8,0.5,6.4,0.8c-0.3,0.1-1.2,0.1,0.6,0.2c2.1,0,2.8-0.1,3.7-0.1
	c3.7-0.2,4.1-0.5,6.2-0.8c2.5,0.2,1.2,0.5,0.2,0.7c-0.3,0.1-1,0.1-1.3,0.2c-0.3,0.1-3.3,0.2-0.5,0.3c2.5,0.1,4.5-0.1,6.4-0.2
	c12.6-0.6,16.4-1.3,14.8-2c4.7,0.2,9.6,0.3,14,0.5c9.1,0.3,12.5,0.8,11.3,1.3c-0.8,0.4-1.2,0.7-2,1.1c-0.6,0.3,1.9,0.6,7,0.8
	c0.9,0,2.6,0.1,1.8,0.1c-0.7,0.1-2.3,0-3.5,0c-6.2,0-11.6-0.1-14-0.4c-1-0.1-3-0.3-6.6-0.2c-3.5,0-3.8,0.2-4.1,0.3
	c-0.7,0.3,2.6,0.6,5.6,0.9c4,0.4,4.2,0.7-0.4,1.1c-0.7,0.1-1.6,0.1-3.5,0.1c-1.5,0-1.9-0.1-2-0.1c-1-0.6-14.1-0.9-24.6-0.6
	C222,12.6,221.4,12.6,220.9,12.6z"/>
<path class="st1" d="M203.9,14.7c0.3,0,0.6,0,1-0.1C204.6,14.7,204.3,14.7,203.9,14.7z"/>
<path class="st1" d="M224.2,7.3c-0.2-0.2-0.4-0.5-0.6-0.7C223.9,6.8,224,7.1,224.2,7.3z"/>
</svg>
