<?xml version="1.0" encoding="utf-8"?>
<!-- Generator: Adobe Illustrator 22.1.0, SVG Export Plug-In . SVG Version: 6.00 Build 0)  -->
<svg version="1.1" id="Layer_1" xmlns="http://www.w3.org/2000/svg" xmlns:xlink="http://www.w3.org/1999/xlink" x="0px" y="0px"
	 viewBox="0 0 142 26" style="enable-background:new 0 0 142 26;" xml:space="preserve">
<g>
	<path d="M4.5,25.5c-2.2,0-4-1.8-4-4v-17c0-2.2,1.8-4,4-4h133c2.2,0,4,1.8,4,4v17c0,2.2-1.8,4-4,4H4.5z"/>
	<path d="M137.5,1c1.9,0,3.5,1.6,3.5,3.5v17c0,1.9-1.6,3.5-3.5,3.5H4.5C2.6,25,1,23.4,1,21.5v-17C1,2.6,2.6,1,4.5,1H137.5 M137.5,0
		H4.5C2,0,0,2,0,4.5v17C0,24,2,26,4.5,26h133c2.5,0,4.5-2,4.5-4.5v-17C142,2,140,0,137.5,0L137.5,0z"/>
</g>
</svg>
